G04 DipTrace 3.0.0.2*
G04 BasicROM.GTO*
%MOMM*%
G04 #@! TF.FileFunction,Legend,Top*
G04 #@! TF.Part,Single*
%ADD10C,0.25*%
%ADD44C,0.19608*%
%ADD45C,0.39216*%
%ADD46C,0.15686*%
%FSLAX35Y35*%
G04*
G71*
G90*
G75*
G01*
G04 TopSilk*
%LPD*%
X863600Y-8077352D2*
D10*
Y-8432648D1*
X1168400Y-8077352D2*
Y-8432648D1*
X863600D2*
G03X1168400Y-8432648I152400J-152D01*
G01*
Y-8077352D2*
G03X863600Y-8077352I-152400J152D01*
G01*
X4165600D2*
Y-8432648D1*
X4470400Y-8077352D2*
Y-8432648D1*
X4165600D2*
G03X4470400Y-8432648I152400J-152D01*
G01*
Y-8077352D2*
G03X4165600Y-8077352I-152400J152D01*
G01*
X863600Y-10109352D2*
Y-10464648D1*
X1168400Y-10109352D2*
Y-10464648D1*
X863600D2*
G03X1168400Y-10464648I152400J-152D01*
G01*
Y-10109352D2*
G03X863600Y-10109352I-152400J152D01*
G01*
X4165600D2*
Y-10464648D1*
X4470400Y-10109352D2*
Y-10464648D1*
X4165600D2*
G03X4470400Y-10464648I152400J-152D01*
G01*
Y-10109352D2*
G03X4165600Y-10109352I-152400J152D01*
G01*
Y-6045352D2*
Y-6400648D1*
X4470400Y-6045352D2*
Y-6400648D1*
X4165600D2*
G03X4470400Y-6400648I152400J-152D01*
G01*
Y-6045352D2*
G03X4165600Y-6045352I-152400J152D01*
G01*
X863600D2*
Y-6400648D1*
X1168400Y-6045352D2*
Y-6400648D1*
X863600D2*
G03X1168400Y-6400648I152400J-152D01*
G01*
Y-6045352D2*
G03X863600Y-6045352I-152400J152D01*
G01*
X8356600Y-10109352D2*
Y-10464648D1*
X8661400Y-10109352D2*
Y-10464648D1*
X8356600D2*
G03X8661400Y-10464648I152400J-152D01*
G01*
Y-10109352D2*
G03X8356600Y-10109352I-152400J152D01*
G01*
X4633000Y-14000040D2*
X4733200D1*
Y-14100000D1*
X10532800D2*
Y-14000040D1*
X10633000D1*
X1143000Y-11176457D2*
Y-11683543D1*
X889000D2*
X1143000D1*
X889000Y-11176457D2*
Y-11683543D1*
Y-11176457D2*
X1143000D1*
X4608000Y-7994989D2*
X6568000D1*
Y-8515011D2*
Y-7994989D1*
X4608000Y-8515011D2*
X6568000D1*
X4608000D2*
Y-8315010D1*
Y-7994989D2*
Y-8194990D1*
Y-8315010D2*
G03X4608000Y-8194990I-34J60010D01*
G01*
X1306000Y-7994989D2*
X3266000D1*
Y-8515011D2*
Y-7994989D1*
X1306000Y-8515011D2*
X3266000D1*
X1306000D2*
Y-8315010D1*
Y-7994989D2*
Y-8194990D1*
Y-8315010D2*
G03X1306000Y-8194990I-34J60010D01*
G01*
Y-5962989D2*
X3266000D1*
Y-6483011D2*
Y-5962989D1*
X1306000Y-6483011D2*
X3266000D1*
X1306000D2*
Y-6283010D1*
Y-5962989D2*
Y-6162990D1*
Y-6283010D2*
G03X1306000Y-6162990I-34J60010D01*
G01*
X4695000Y-5962989D2*
X6735000D1*
Y-6483011D2*
Y-5962989D1*
X4695000Y-6483011D2*
X6735000D1*
X4695000D2*
Y-6283010D1*
Y-5962989D2*
Y-6162990D1*
Y-6283010D2*
G03X4695000Y-6162990I-34J60010D01*
G01*
X1367000Y-10026989D2*
X3967000D1*
Y-10547011D2*
Y-10026989D1*
X1367000Y-10547011D2*
X3967000D1*
X1367000D2*
Y-10347010D1*
Y-10026989D2*
Y-10226990D1*
Y-10347010D2*
G03X1367000Y-10226990I-210J60010D01*
G01*
X4669000Y-10026989D2*
X7269000D1*
Y-10547011D2*
Y-10026989D1*
X4669000Y-10547011D2*
X7269000D1*
X4669000D2*
Y-10347010D1*
Y-10026989D2*
Y-10226990D1*
Y-10347010D2*
G03X4669000Y-10226990I-210J60010D01*
G01*
X8808000Y-9649056D2*
X12528000D1*
Y-10928944D2*
Y-9649056D1*
X8808000Y-10928944D2*
X12528000D1*
X8808000D2*
Y-10368993D1*
Y-9649056D2*
Y-10209007D1*
Y-10368993D2*
G03X8808000Y-10209007I-13J79993D01*
G01*
G36*
X1600000Y-11300000D2*
X6400000D1*
Y-12300000D1*
X1600000D1*
Y-11300000D1*
G37*
X707937Y-8244285D2*
D44*
X695863Y-8250321D1*
X683650Y-8262534D1*
X677613Y-8274608D1*
Y-8298894D1*
X683650Y-8311108D1*
X695863Y-8323181D1*
X707936Y-8329358D1*
X726186Y-8335394D1*
X756650D1*
X774759Y-8329358D1*
X786973Y-8323181D1*
X799046Y-8311108D1*
X805223Y-8298894D1*
Y-8274608D1*
X799046Y-8262535D1*
X786973Y-8250321D1*
X774760Y-8244285D1*
X702040Y-8205069D2*
X695863Y-8192855D1*
X677754Y-8174605D1*
X805223Y-8174606D1*
X4009937Y-8271589D2*
X3997863Y-8277626D1*
X3985650Y-8289839D1*
X3979613Y-8301912D1*
Y-8326199D1*
X3985650Y-8338412D1*
X3997863Y-8350485D1*
X4009936Y-8356662D1*
X4028186Y-8362699D1*
X4058650D1*
X4076759Y-8356662D1*
X4088973Y-8350485D1*
X4101046Y-8338412D1*
X4107223Y-8326199D1*
Y-8301913D1*
X4101046Y-8289839D1*
X4088973Y-8277626D1*
X4076760Y-8271589D1*
X4010077Y-8226197D2*
X4004040D1*
X3991827Y-8220160D1*
X3985790Y-8214124D1*
X3979754Y-8201910D1*
Y-8177624D1*
X3985790Y-8165551D1*
X3991827Y-8159514D1*
X4004040Y-8153337D1*
X4016113D1*
X4028327Y-8159514D1*
X4046437Y-8171587D1*
X4107223Y-8232374D1*
Y-8147301D1*
X707937Y-10303589D2*
X695863Y-10309626D1*
X683650Y-10321839D1*
X677613Y-10333912D1*
Y-10358199D1*
X683650Y-10370412D1*
X695863Y-10382485D1*
X707936Y-10388662D1*
X726186Y-10394699D1*
X756650D1*
X774759Y-10388662D1*
X786973Y-10382485D1*
X799046Y-10370412D1*
X805223Y-10358199D1*
Y-10333913D1*
X799046Y-10321839D1*
X786973Y-10309626D1*
X774760Y-10303589D1*
X677754Y-10252160D2*
Y-10185478D1*
X726327Y-10221837D1*
Y-10203587D1*
X732363Y-10191514D1*
X738400Y-10185478D1*
X756650Y-10179301D1*
X768723D1*
X786973Y-10185478D1*
X799186Y-10197551D1*
X805223Y-10215801D1*
Y-10234051D1*
X799186Y-10252160D1*
X793010Y-10258197D1*
X780937Y-10264374D1*
X4009937Y-10306608D2*
X3997863Y-10312644D1*
X3985650Y-10324858D1*
X3979613Y-10336931D1*
Y-10361217D1*
X3985650Y-10373431D1*
X3997863Y-10385504D1*
X4009936Y-10391681D1*
X4028186Y-10397717D1*
X4058650D1*
X4076759Y-10391681D1*
X4088973Y-10385504D1*
X4101046Y-10373431D1*
X4107223Y-10361217D1*
Y-10336931D1*
X4101046Y-10324858D1*
X4088973Y-10312644D1*
X4076760Y-10306608D1*
X4107223Y-10206606D2*
X3979754Y-10206605D1*
X4064687Y-10267392D1*
Y-10176282D1*
X4009937Y-6239589D2*
X3997863Y-6245626D1*
X3985650Y-6257839D1*
X3979613Y-6269912D1*
Y-6294199D1*
X3985650Y-6306412D1*
X3997863Y-6318485D1*
X4009936Y-6324662D1*
X4028186Y-6330699D1*
X4058650D1*
X4076759Y-6324662D1*
X4088973Y-6318485D1*
X4101046Y-6306412D1*
X4107223Y-6294199D1*
Y-6269913D1*
X4101046Y-6257839D1*
X4088973Y-6245626D1*
X4076760Y-6239589D1*
X3979754Y-6127514D2*
Y-6188160D1*
X4034363Y-6194197D1*
X4028327Y-6188160D1*
X4022150Y-6169910D1*
Y-6151801D1*
X4028327Y-6133551D1*
X4040400Y-6121337D1*
X4058650Y-6115301D1*
X4070723D1*
X4088973Y-6121337D1*
X4101186Y-6133551D1*
X4107223Y-6151801D1*
Y-6169910D1*
X4101186Y-6188160D1*
X4095010Y-6194197D1*
X4082937Y-6200374D1*
X707937Y-6236501D2*
X695863Y-6242537D1*
X683650Y-6254751D1*
X677613Y-6266824D1*
Y-6291110D1*
X683650Y-6303324D1*
X695863Y-6315397D1*
X707936Y-6321574D1*
X726186Y-6327610D1*
X756650D1*
X774759Y-6321574D1*
X786973Y-6315397D1*
X799046Y-6303324D1*
X805223Y-6291111D1*
Y-6266824D1*
X799046Y-6254751D1*
X786973Y-6242538D1*
X774760Y-6236501D1*
X695863Y-6124426D2*
X683790Y-6130462D1*
X677754Y-6148712D1*
Y-6160785D1*
X683790Y-6179035D1*
X702040Y-6191249D1*
X732363Y-6197285D1*
X762687D1*
X786973Y-6191249D1*
X799186Y-6179035D1*
X805223Y-6160785D1*
Y-6154749D1*
X799186Y-6136639D1*
X786973Y-6124426D1*
X768723Y-6118389D1*
X762687D1*
X744437Y-6124426D1*
X732363Y-6136639D1*
X726327Y-6154749D1*
Y-6160785D1*
X732363Y-6179035D1*
X744437Y-6191249D1*
X762687Y-6197285D1*
X8200937Y-10303589D2*
X8188863Y-10309626D1*
X8176650Y-10321839D1*
X8170613Y-10333912D1*
Y-10358199D1*
X8176650Y-10370412D1*
X8188863Y-10382485D1*
X8200936Y-10388662D1*
X8219186Y-10394699D1*
X8249650D1*
X8267759Y-10388662D1*
X8279973Y-10382485D1*
X8292046Y-10370412D1*
X8298223Y-10358199D1*
Y-10333913D1*
X8292046Y-10321839D1*
X8279973Y-10309626D1*
X8267760Y-10303589D1*
X8298223Y-10240087D2*
X8170754Y-10179301D1*
Y-10264374D1*
X7560571Y-12644336D2*
X7554534Y-12632263D1*
X7542321Y-12620050D1*
X7530248Y-12614013D1*
X7505961D1*
X7493748Y-12620050D1*
X7481675Y-12632263D1*
X7475498Y-12644336D1*
X7469461Y-12662586D1*
Y-12693050D1*
X7475498Y-12711160D1*
X7481675Y-12723373D1*
X7493748Y-12735446D1*
X7505961Y-12741623D1*
X7530248D1*
X7542321Y-12735446D1*
X7554534Y-12723373D1*
X7560571Y-12711160D1*
X7684860Y-12614013D2*
Y-12741623D1*
X7599787Y-12614013D1*
Y-12741623D1*
X7724075Y-12638440D2*
X7736289Y-12632263D1*
X7754539Y-12614154D1*
Y-12741623D1*
X763800Y-11507376D2*
Y-11452766D1*
X757623Y-11434516D1*
X751587Y-11428339D1*
X739514Y-11422303D1*
X727300D1*
X715227Y-11428339D1*
X709050Y-11434516D1*
X703013Y-11452766D1*
Y-11507376D1*
X830623D1*
X763800Y-11464839D2*
X830623Y-11422303D1*
X727440Y-11383087D2*
X721264Y-11370874D1*
X703154Y-11352624D1*
X830623D1*
X5510624Y-7613013D2*
Y-7704123D1*
X5516660Y-7722373D1*
X5528874Y-7734446D1*
X5547124Y-7740623D1*
X5559197D1*
X5577447Y-7734446D1*
X5589660Y-7722373D1*
X5595697Y-7704123D1*
Y-7613013D1*
X5634913Y-7637440D2*
X5647126Y-7631263D1*
X5665376Y-7613154D1*
Y-7740623D1*
X2181319Y-7613013D2*
Y-7704123D1*
X2187356Y-7722373D1*
X2199569Y-7734446D1*
X2217819Y-7740623D1*
X2229892D1*
X2248142Y-7734446D1*
X2260356Y-7722373D1*
X2266392Y-7704123D1*
Y-7613013D1*
X2311785Y-7643477D2*
Y-7637440D1*
X2317821Y-7625227D1*
X2323858Y-7619190D1*
X2336071Y-7613154D1*
X2360358D1*
X2372431Y-7619190D1*
X2378467Y-7625227D1*
X2384644Y-7637440D1*
Y-7649513D1*
X2378467Y-7661727D1*
X2366394Y-7679836D1*
X2305608Y-7740623D1*
X2390681D1*
X2181319Y-5581013D2*
Y-5672123D1*
X2187356Y-5690373D1*
X2199569Y-5702446D1*
X2217819Y-5708623D1*
X2229892D1*
X2248142Y-5702446D1*
X2260356Y-5690373D1*
X2266392Y-5672123D1*
Y-5581013D1*
X2317821Y-5581154D2*
X2384504D1*
X2348144Y-5629727D1*
X2366394D1*
X2378467Y-5635763D1*
X2384504Y-5641800D1*
X2390681Y-5660050D1*
Y-5672123D1*
X2384504Y-5690373D1*
X2372431Y-5702586D1*
X2354181Y-5708623D1*
X2335931D1*
X2317821Y-5702586D1*
X2311785Y-5696410D1*
X2305608Y-5684336D1*
X5607301Y-5581013D2*
Y-5672123D1*
X5613337Y-5690373D1*
X5625551Y-5702446D1*
X5643801Y-5708623D1*
X5655874D1*
X5674124Y-5702446D1*
X5686337Y-5690373D1*
X5692374Y-5672123D1*
Y-5581013D1*
X5792376Y-5708623D2*
Y-5581154D1*
X5731590Y-5666086D1*
X5822699D1*
X2562319Y-9645013D2*
Y-9736123D1*
X2568356Y-9754373D1*
X2580569Y-9766446D1*
X2598819Y-9772623D1*
X2610892D1*
X2629142Y-9766446D1*
X2641356Y-9754373D1*
X2647392Y-9736123D1*
Y-9645013D1*
X2759467Y-9645154D2*
X2698821D1*
X2692785Y-9699763D1*
X2698821Y-9693727D1*
X2717071Y-9687550D1*
X2735181D1*
X2753431Y-9693727D1*
X2765644Y-9705800D1*
X2771681Y-9724050D1*
Y-9736123D1*
X2765644Y-9754373D1*
X2753431Y-9766586D1*
X2735181Y-9772623D1*
X2717071D1*
X2698821Y-9766586D1*
X2692785Y-9760410D1*
X2686608Y-9748336D1*
X5867408Y-9645013D2*
Y-9736123D1*
X5873444Y-9754373D1*
X5885658Y-9766446D1*
X5903908Y-9772623D1*
X5915981D1*
X5934231Y-9766446D1*
X5946444Y-9754373D1*
X5952481Y-9736123D1*
Y-9645013D1*
X6064556Y-9663263D2*
X6058519Y-9651190D1*
X6040269Y-9645154D1*
X6028196D1*
X6009946Y-9651190D1*
X5997733Y-9669440D1*
X5991696Y-9699763D1*
Y-9730086D1*
X5997733Y-9754373D1*
X6009946Y-9766586D1*
X6028196Y-9772623D1*
X6034233D1*
X6052342Y-9766586D1*
X6064556Y-9754373D1*
X6070592Y-9736123D1*
Y-9730086D1*
X6064556Y-9711836D1*
X6052342Y-9699763D1*
X6034233Y-9693727D1*
X6028196D1*
X6009946Y-9699763D1*
X5997733Y-9711836D1*
X5991696Y-9730086D1*
X10563319Y-9268013D2*
Y-9359123D1*
X10569356Y-9377373D1*
X10581569Y-9389446D1*
X10599819Y-9395623D1*
X10611892D1*
X10630142Y-9389446D1*
X10642356Y-9377373D1*
X10648392Y-9359123D1*
Y-9268013D1*
X10711894Y-9395623D2*
X10772681Y-9268154D1*
X10687608D1*
X7800001Y-11766543D2*
D45*
X7970147Y-12021763D1*
Y-11766543D2*
X7800001Y-12021763D1*
X8048579Y-11815397D2*
X8073006Y-11803043D1*
X8109506Y-11766824D1*
Y-12021763D1*
X8434830Y-11888117D2*
X8544049D1*
X8580549Y-11875763D1*
X8592903Y-11863690D1*
X8604976Y-11839543D1*
Y-11815117D1*
X8592903Y-11790970D1*
X8580549Y-11778617D1*
X8544049Y-11766543D1*
X8434830D1*
Y-12021763D1*
X8519903Y-11888117D2*
X8604976Y-12021763D1*
X8756407Y-11766543D2*
X8731981Y-11778617D1*
X8707834Y-11803043D1*
X8695481Y-11827190D1*
X8683407Y-11863690D1*
Y-11924617D1*
X8695481Y-11960836D1*
X8707834Y-11985263D1*
X8731981Y-12009409D1*
X8756407Y-12021763D1*
X8804981D1*
X8829127Y-12009409D1*
X8853554Y-11985263D1*
X8865627Y-11960836D1*
X8877700Y-11924617D1*
Y-11863690D1*
X8865627Y-11827190D1*
X8853554Y-11803043D1*
X8829127Y-11778617D1*
X8804981Y-11766543D1*
X8756407D1*
X9150423Y-12021763D2*
Y-11766543D1*
X9053277Y-12021763D1*
X8956131Y-11766543D1*
Y-12021763D1*
X9475748Y-11766543D2*
Y-12021763D1*
X9585248D1*
X9621748Y-12009409D1*
X9633821Y-11997336D1*
X9645894Y-11973190D1*
Y-11936690D1*
X9633821Y-11912263D1*
X9621748Y-11900190D1*
X9585248Y-11888117D1*
X9621748Y-11875763D1*
X9633821Y-11863690D1*
X9645894Y-11839543D1*
Y-11815117D1*
X9633821Y-11790970D1*
X9621748Y-11778617D1*
X9585248Y-11766543D1*
X9475748D1*
Y-11888117D2*
X9585248D1*
X9797325Y-11766543D2*
X9772898Y-11778617D1*
X9748752Y-11803043D1*
X9736398Y-11827190D1*
X9724325Y-11863690D1*
Y-11924617D1*
X9736398Y-11960836D1*
X9748752Y-11985263D1*
X9772898Y-12009409D1*
X9797325Y-12021763D1*
X9845898D1*
X9870044Y-12009409D1*
X9894471Y-11985263D1*
X9906544Y-11960836D1*
X9918618Y-11924617D1*
Y-11863690D1*
X9906544Y-11827190D1*
X9894471Y-11803043D1*
X9870044Y-11778617D1*
X9845898Y-11766543D1*
X9797325D1*
X10191622Y-12021763D2*
X10094195Y-11766543D1*
X9997049Y-12021763D1*
X10033549Y-11936690D2*
X10155122D1*
X10270053Y-11888117D2*
X10379273D1*
X10415773Y-11875763D1*
X10428126Y-11863690D1*
X10440200Y-11839543D1*
Y-11815117D1*
X10428126Y-11790970D1*
X10415773Y-11778617D1*
X10379273Y-11766543D1*
X10270053D1*
Y-12021763D1*
X10355126Y-11888117D2*
X10440200Y-12021763D1*
X10518631Y-11766543D2*
Y-12021763D1*
X10603704D1*
X10640204Y-12009409D1*
X10664631Y-11985263D1*
X10676704Y-11960836D1*
X10688777Y-11924617D1*
Y-11863690D1*
X10676704Y-11827190D1*
X10664631Y-11803043D1*
X10640204Y-11778617D1*
X10603704Y-11766543D1*
X10518631D1*
X11014101Y-11894293D2*
X11154486D1*
X11625529Y-11766824D2*
X11504237D1*
X11492164Y-11876043D1*
X11504237Y-11863970D1*
X11540737Y-11851617D1*
X11576956D1*
X11613456Y-11863970D1*
X11637883Y-11888117D1*
X11649956Y-11924617D1*
Y-11948763D1*
X11637883Y-11985263D1*
X11613456Y-12009690D1*
X11576956Y-12021763D1*
X11540737D1*
X11504237Y-12009690D1*
X11492164Y-11997336D1*
X11479810Y-11973190D1*
X11728388Y-11815397D2*
X11752815Y-11803043D1*
X11789315Y-11766824D1*
Y-12021763D1*
X11880100Y-11827470D2*
Y-11815397D1*
X11892173Y-11790970D1*
X11904246Y-11778897D1*
X11928673Y-11766824D1*
X11977246D1*
X12001392Y-11778897D1*
X12013465Y-11790970D1*
X12025819Y-11815397D1*
Y-11839543D1*
X12013465Y-11863970D1*
X11989319Y-11900190D1*
X11867746Y-12021763D1*
X12037892D1*
X12116324Y-11766543D2*
Y-12021763D1*
X12237897Y-11851617D2*
X12116324Y-11973190D1*
X12164897Y-11924617D2*
X12249970Y-12021763D1*
X12328401Y-11766543D2*
Y-12021763D1*
Y-11888117D2*
X12352828Y-11863690D1*
X12376974Y-11851617D1*
X12413474D1*
X12437620Y-11863690D1*
X12462047Y-11888117D1*
X12474120Y-11924617D1*
Y-11948763D1*
X12462047Y-11985263D1*
X12437620Y-12009409D1*
X12413474Y-12021763D1*
X12376974D1*
X12352828Y-12009409D1*
X12328401Y-11985263D1*
X12552552Y-11766543D2*
X12564625Y-11778617D1*
X12576979Y-11766543D1*
X12564625Y-11754190D1*
X12552552Y-11766543D1*
X12564625Y-11851617D2*
Y-12021763D1*
X12691910Y-11766543D2*
Y-11973190D1*
X12703983Y-12009409D1*
X12728410Y-12021763D1*
X12752556D1*
X12655410Y-11851617D2*
X12740483D1*
X12388236Y-12248883D2*
D46*
Y-12316941D1*
Y-12278083D2*
X12393178Y-12263483D1*
X12402836Y-12253712D1*
X12412607Y-12248883D1*
X12427207D1*
X12458580Y-12278083D2*
X12516867D1*
Y-12268312D1*
X12512038Y-12258541D1*
X12507209Y-12253712D1*
X12497438Y-12248883D1*
X12482838D1*
X12473180Y-12253712D1*
X12463409Y-12263483D1*
X12458580Y-12278083D1*
Y-12287741D1*
X12463409Y-12302341D1*
X12473180Y-12312000D1*
X12482838Y-12316941D1*
X12497438D1*
X12507209Y-12312000D1*
X12516867Y-12302341D1*
X12548240Y-12248883D2*
X12577440Y-12316941D1*
X12606528Y-12248883D1*
X12642730Y-12307170D2*
X12637900Y-12312112D1*
X12642730Y-12316941D1*
X12647671Y-12312112D1*
X12642730Y-12307170D1*
X12708244Y-12214966D2*
X12693644Y-12219795D1*
X12683873Y-12234395D1*
X12679044Y-12258653D1*
Y-12273253D1*
X12683873Y-12297512D1*
X12693644Y-12312112D1*
X12708244Y-12316941D1*
X12717902D1*
X12732502Y-12312112D1*
X12742161Y-12297512D1*
X12747102Y-12273253D1*
Y-12258653D1*
X12742161Y-12234395D1*
X12732502Y-12219795D1*
X12717902Y-12214966D1*
X12708244D1*
X12742161Y-12234395D2*
X12683873Y-12297512D1*
X10387484Y-12770685D2*
D44*
X10338770Y-12643075D1*
X10290197Y-12770685D1*
X10308447Y-12728148D2*
X10369234D1*
X10426699Y-12667502D2*
X10438913Y-12661325D1*
X10457163Y-12643215D1*
Y-12770685D1*
X4787484D2*
X4738770Y-12643075D1*
X4690197Y-12770685D1*
X4708447Y-12728148D2*
X4769234D1*
X4832876Y-12673539D2*
Y-12667502D1*
X4838913Y-12655289D1*
X4844949Y-12649252D1*
X4857163Y-12643215D1*
X4881449D1*
X4893523Y-12649252D1*
X4899559Y-12655289D1*
X4905736Y-12667502D1*
Y-12679575D1*
X4899559Y-12691789D1*
X4887486Y-12709898D1*
X4826699Y-12770685D1*
X4911773D1*
X4957165Y-12673539D2*
Y-12667502D1*
X4963202Y-12655289D1*
X4969238Y-12649252D1*
X4981452Y-12643215D1*
X5005738D1*
X5017811Y-12649252D1*
X5023848Y-12655289D1*
X5030025Y-12667502D1*
Y-12679575D1*
X5023848Y-12691789D1*
X5011775Y-12709898D1*
X4950988Y-12770685D1*
X5036061D1*
M02*
