M48
METRIC,0000.00
T01C0.3
T02C0.9
T03C0.965
T04C1.0
%
T04
X+001016Y-008382
X+001016Y-008128
X+004318Y-008382
X+004318Y-008128
X+001016Y-010414
X+001016Y-010160
X+004318Y-010414
X+004318Y-010160
X+004318Y-006350
X+004318Y-006096
X+001016Y-006350
X+001016Y-006096
X+008509Y-010414
X+008509Y-010160
T02
X+001016Y-000508
X+000762Y-000508
X+001270Y-000508
X+001778Y-000508
X+001524Y-000508
X+002032Y-000508
X+002540Y-000508
X+002286Y-000508
X+002794Y-000508
X+003302Y-000508
X+003048Y-000508
X+003556Y-000508
X+004064Y-000508
X+003810Y-000508
X+004318Y-000508
X+004826Y-000508
X+004572Y-000508
X+005080Y-000508
X+005588Y-000508
X+005334Y-000508
X+005842Y-000508
X+006350Y-000508
X+006096Y-000508
X+006604Y-000508
X+007112Y-000508
X+006858Y-000508
X+007366Y-000508
X+007874Y-000508
X+007620Y-000508
X+008128Y-000508
X+008636Y-000508
X+008382Y-000508
X+008890Y-000508
X+009398Y-000508
X+009144Y-000508
X+009652Y-000508
X+010160Y-000508
X+009906Y-000508
X+010414Y-000508
X+010922Y-000508
X+010668Y-000508
X+011176Y-000508
X+011684Y-000508
X+011430Y-000508
X+011938Y-000508
X+012446Y-000508
X+012192Y-000508
X+012700Y-000508
X+012954Y-000508
X+001016Y-000762
X+000762Y-000762
X+001270Y-000762
X+001778Y-000762
X+001524Y-000762
X+002032Y-000762
X+002540Y-000762
X+002286Y-000762
X+002794Y-000762
X+003302Y-000762
X+003048Y-000762
X+003556Y-000762
X+004064Y-000762
X+003810Y-000762
X+004318Y-000762
X+004826Y-000762
X+004572Y-000762
X+005080Y-000762
X+005588Y-000762
X+005334Y-000762
X+005842Y-000762
X+006350Y-000762
X+006096Y-000762
X+006604Y-000762
X+007112Y-000762
X+006858Y-000762
X+007366Y-000762
X+007874Y-000762
X+007620Y-000762
X+008128Y-000762
X+008636Y-000762
X+008382Y-000762
X+008890Y-000762
X+009398Y-000762
X+009144Y-000762
X+009652Y-000762
X+010160Y-000762
X+009906Y-000762
X+010414Y-000762
X+010922Y-000762
X+010668Y-000762
X+011176Y-000762
X+011684Y-000762
X+011430Y-000762
X+011938Y-000762
X+012446Y-000762
X+012192Y-000762
X+012700Y-000762
X+012954Y-000762
X+001016Y-001016
X+000762Y-001016
X+001270Y-001016
X+001778Y-001016
X+001524Y-001016
X+002032Y-001016
X+002540Y-001016
X+002286Y-001016
X+002794Y-001016
X+003302Y-001016
X+003048Y-001016
X+003556Y-001016
X+004064Y-001016
X+003810Y-001016
X+004318Y-001016
X+004826Y-001016
X+004572Y-001016
X+005080Y-001016
X+005588Y-001016
X+005334Y-001016
X+005842Y-001016
X+006350Y-001016
X+006096Y-001016
X+006604Y-001016
X+007112Y-001016
X+006858Y-001016
X+007366Y-001016
X+007874Y-001016
X+007620Y-001016
X+008128Y-001016
X+008636Y-001016
X+008382Y-001016
X+008890Y-001016
X+009398Y-001016
X+009144Y-001016
X+009652Y-001016
X+010160Y-001016
X+009906Y-001016
X+010414Y-001016
X+010922Y-001016
X+010668Y-001016
X+011176Y-001016
X+011684Y-001016
X+011430Y-001016
X+011938Y-001016
X+012446Y-001016
X+012192Y-001016
X+012700Y-001016
X+012954Y-001016
X+001016Y-001270
X+000762Y-001270
X+001270Y-001270
X+001778Y-001270
X+001524Y-001270
X+002032Y-001270
X+002540Y-001270
X+002286Y-001270
X+002794Y-001270
X+003302Y-001270
X+003048Y-001270
X+003556Y-001270
X+004064Y-001270
X+003810Y-001270
X+004318Y-001270
X+004826Y-001270
X+004572Y-001270
X+005080Y-001270
X+005588Y-001270
X+005334Y-001270
X+005842Y-001270
X+006350Y-001270
X+006096Y-001270
X+006604Y-001270
X+007112Y-001270
X+006858Y-001270
X+007366Y-001270
X+007874Y-001270
X+007620Y-001270
X+008128Y-001270
X+008636Y-001270
X+008382Y-001270
X+008890Y-001270
X+009398Y-001270
X+009144Y-001270
X+009652Y-001270
X+010160Y-001270
X+009906Y-001270
X+010414Y-001270
X+010922Y-001270
X+010668Y-001270
X+011176Y-001270
X+011684Y-001270
X+011430Y-001270
X+011938Y-001270
X+012446Y-001270
X+012192Y-001270
X+012700Y-001270
X+012954Y-001270
X+001016Y-001524
X+000762Y-001524
X+001270Y-001524
X+001778Y-001524
X+001524Y-001524
X+002032Y-001524
X+002540Y-001524
X+002286Y-001524
X+002794Y-001524
X+003302Y-001524
X+003048Y-001524
X+003556Y-001524
X+004064Y-001524
X+003810Y-001524
X+004318Y-001524
X+004826Y-001524
X+004572Y-001524
X+005080Y-001524
X+005588Y-001524
X+005334Y-001524
X+005842Y-001524
X+006350Y-001524
X+006096Y-001524
X+006604Y-001524
X+007112Y-001524
X+006858Y-001524
X+007366Y-001524
X+007874Y-001524
X+007620Y-001524
X+008128Y-001524
X+008636Y-001524
X+008382Y-001524
X+008890Y-001524
X+009398Y-001524
X+009144Y-001524
X+009652Y-001524
X+010160Y-001524
X+009906Y-001524
X+010414Y-001524
X+010922Y-001524
X+010668Y-001524
X+011176Y-001524
X+011684Y-001524
X+011430Y-001524
X+011938Y-001524
X+012446Y-001524
X+012192Y-001524
X+012700Y-001524
X+012954Y-001524
X+001016Y-001778
X+000762Y-001778
X+001270Y-001778
X+001778Y-001778
X+001524Y-001778
X+002032Y-001778
X+002540Y-001778
X+002286Y-001778
X+002794Y-001778
X+003302Y-001778
X+003048Y-001778
X+003556Y-001778
X+004064Y-001778
X+003810Y-001778
X+004318Y-001778
X+004826Y-001778
X+004572Y-001778
X+005080Y-001778
X+005588Y-001778
X+005334Y-001778
X+005842Y-001778
X+006350Y-001778
X+006096Y-001778
X+006604Y-001778
X+007112Y-001778
X+006858Y-001778
X+007366Y-001778
X+007874Y-001778
X+007620Y-001778
X+008128Y-001778
X+008636Y-001778
X+008382Y-001778
X+008890Y-001778
X+009398Y-001778
X+009144Y-001778
X+009652Y-001778
X+010160Y-001778
X+009906Y-001778
X+010414Y-001778
X+010922Y-001778
X+010668Y-001778
X+011176Y-001778
X+011684Y-001778
X+011430Y-001778
X+011938Y-001778
X+012446Y-001778
X+012192Y-001778
X+012700Y-001778
X+012954Y-001778
X+001016Y-002032
X+000762Y-002032
X+001270Y-002032
X+001778Y-002032
X+001524Y-002032
X+002032Y-002032
X+002540Y-002032
X+002286Y-002032
X+002794Y-002032
X+003302Y-002032
X+003048Y-002032
X+003556Y-002032
X+004064Y-002032
X+003810Y-002032
X+004318Y-002032
X+004826Y-002032
X+004572Y-002032
X+005080Y-002032
X+005588Y-002032
X+005334Y-002032
X+005842Y-002032
X+006350Y-002032
X+006096Y-002032
X+006604Y-002032
X+007112Y-002032
X+006858Y-002032
X+007366Y-002032
X+007874Y-002032
X+007620Y-002032
X+008128Y-002032
X+008636Y-002032
X+008382Y-002032
X+008890Y-002032
X+009398Y-002032
X+009144Y-002032
X+009652Y-002032
X+010160Y-002032
X+009906Y-002032
X+010414Y-002032
X+010922Y-002032
X+010668Y-002032
X+011176Y-002032
X+011684Y-002032
X+011430Y-002032
X+011938Y-002032
X+012446Y-002032
X+012192Y-002032
X+012700Y-002032
X+012954Y-002032
X+001016Y-002286
X+000762Y-002286
X+001270Y-002286
X+001778Y-002286
X+001524Y-002286
X+002032Y-002286
X+002540Y-002286
X+002286Y-002286
X+002794Y-002286
X+003302Y-002286
X+003048Y-002286
X+003556Y-002286
X+004064Y-002286
X+003810Y-002286
X+004318Y-002286
X+004826Y-002286
X+004572Y-002286
X+005080Y-002286
X+005588Y-002286
X+005334Y-002286
X+005842Y-002286
X+006350Y-002286
X+006096Y-002286
X+006604Y-002286
X+007112Y-002286
X+006858Y-002286
X+007366Y-002286
X+007874Y-002286
X+007620Y-002286
X+008128Y-002286
X+008636Y-002286
X+008382Y-002286
X+008890Y-002286
X+009398Y-002286
X+009144Y-002286
X+009652Y-002286
X+010160Y-002286
X+009906Y-002286
X+010414Y-002286
X+010922Y-002286
X+010668Y-002286
X+011176Y-002286
X+011684Y-002286
X+011430Y-002286
X+011938Y-002286
X+012446Y-002286
X+012192Y-002286
X+012700Y-002286
X+012954Y-002286
X+001016Y-002540
X+000762Y-002540
X+001270Y-002540
X+001778Y-002540
X+001524Y-002540
X+002032Y-002540
X+002540Y-002540
X+002286Y-002540
X+002794Y-002540
X+003302Y-002540
X+003048Y-002540
X+003556Y-002540
X+004064Y-002540
X+003810Y-002540
X+004318Y-002540
X+004826Y-002540
X+004572Y-002540
X+005080Y-002540
X+005588Y-002540
X+005334Y-002540
X+005842Y-002540
X+006350Y-002540
X+006096Y-002540
X+006604Y-002540
X+007112Y-002540
X+006858Y-002540
X+007366Y-002540
X+007874Y-002540
X+007620Y-002540
X+008128Y-002540
X+008636Y-002540
X+008382Y-002540
X+008890Y-002540
X+009398Y-002540
X+009144Y-002540
X+009652Y-002540
X+010160Y-002540
X+009906Y-002540
X+010414Y-002540
X+010922Y-002540
X+010668Y-002540
X+011176Y-002540
X+011684Y-002540
X+011430Y-002540
X+011938Y-002540
X+012446Y-002540
X+012192Y-002540
X+012700Y-002540
X+012954Y-002540
X+001016Y-002794
X+000762Y-002794
X+001270Y-002794
X+001778Y-002794
X+001524Y-002794
X+002032Y-002794
X+002540Y-002794
X+002286Y-002794
X+002794Y-002794
X+003302Y-002794
X+003048Y-002794
X+003556Y-002794
X+004064Y-002794
X+003810Y-002794
X+004318Y-002794
X+004826Y-002794
X+004572Y-002794
X+005080Y-002794
X+005588Y-002794
X+005334Y-002794
X+005842Y-002794
X+006350Y-002794
X+006096Y-002794
X+006604Y-002794
X+007112Y-002794
X+006858Y-002794
X+007366Y-002794
X+007874Y-002794
X+007620Y-002794
X+008128Y-002794
X+008636Y-002794
X+008382Y-002794
X+008890Y-002794
X+009398Y-002794
X+009144Y-002794
X+009652Y-002794
X+010160Y-002794
X+009906Y-002794
X+010414Y-002794
X+010922Y-002794
X+010668Y-002794
X+011176Y-002794
X+011684Y-002794
X+011430Y-002794
X+011938Y-002794
X+012446Y-002794
X+012192Y-002794
X+012700Y-002794
X+012954Y-002794
X+001016Y-003048
X+000762Y-003048
X+001270Y-003048
X+001778Y-003048
X+001524Y-003048
X+002032Y-003048
X+002540Y-003048
X+002286Y-003048
X+002794Y-003048
X+003302Y-003048
X+003048Y-003048
X+003556Y-003048
X+004064Y-003048
X+003810Y-003048
X+004318Y-003048
X+004826Y-003048
X+004572Y-003048
X+005080Y-003048
X+005588Y-003048
X+005334Y-003048
X+005842Y-003048
X+006350Y-003048
X+006096Y-003048
X+006604Y-003048
X+007112Y-003048
X+006858Y-003048
X+007366Y-003048
X+007874Y-003048
X+007620Y-003048
X+008128Y-003048
X+008636Y-003048
X+008382Y-003048
X+008890Y-003048
X+009398Y-003048
X+009144Y-003048
X+009652Y-003048
X+010160Y-003048
X+009906Y-003048
X+010414Y-003048
X+010922Y-003048
X+010668Y-003048
X+011176Y-003048
X+011684Y-003048
X+011430Y-003048
X+011938Y-003048
X+012446Y-003048
X+012192Y-003048
X+012700Y-003048
X+012954Y-003048
X+001016Y-003302
X+000762Y-003302
X+001270Y-003302
X+001778Y-003302
X+001524Y-003302
X+002032Y-003302
X+002540Y-003302
X+002286Y-003302
X+002794Y-003302
X+003302Y-003302
X+003048Y-003302
X+003556Y-003302
X+004064Y-003302
X+003810Y-003302
X+004318Y-003302
X+004826Y-003302
X+004572Y-003302
X+005080Y-003302
X+005588Y-003302
X+005334Y-003302
X+005842Y-003302
X+006350Y-003302
X+006096Y-003302
X+006604Y-003302
X+007112Y-003302
X+006858Y-003302
X+007366Y-003302
X+007874Y-003302
X+007620Y-003302
X+008128Y-003302
X+008636Y-003302
X+008382Y-003302
X+008890Y-003302
X+009398Y-003302
X+009144Y-003302
X+009652Y-003302
X+010160Y-003302
X+009906Y-003302
X+010414Y-003302
X+010922Y-003302
X+010668Y-003302
X+011176Y-003302
X+011684Y-003302
X+011430Y-003302
X+011938Y-003302
X+012446Y-003302
X+012192Y-003302
X+012700Y-003302
X+012954Y-003302
X+001016Y-003556
X+000762Y-003556
X+001270Y-003556
X+001778Y-003556
X+001524Y-003556
X+002032Y-003556
X+002540Y-003556
X+002286Y-003556
X+002794Y-003556
X+003302Y-003556
X+003048Y-003556
X+003556Y-003556
X+004064Y-003556
X+003810Y-003556
X+004318Y-003556
X+004826Y-003556
X+004572Y-003556
X+005080Y-003556
X+005588Y-003556
X+005334Y-003556
X+005842Y-003556
X+006350Y-003556
X+006096Y-003556
X+006604Y-003556
X+007112Y-003556
X+006858Y-003556
X+007366Y-003556
X+007874Y-003556
X+007620Y-003556
X+008128Y-003556
X+008636Y-003556
X+008382Y-003556
X+008890Y-003556
X+009398Y-003556
X+009144Y-003556
X+009652Y-003556
X+010160Y-003556
X+009906Y-003556
X+010414Y-003556
X+010922Y-003556
X+010668Y-003556
X+011176Y-003556
X+011684Y-003556
X+011430Y-003556
X+011938Y-003556
X+012446Y-003556
X+012192Y-003556
X+012700Y-003556
X+012954Y-003556
X+001016Y-003810
X+000762Y-003810
X+001270Y-003810
X+001778Y-003810
X+001524Y-003810
X+002032Y-003810
X+002540Y-003810
X+002286Y-003810
X+002794Y-003810
X+003302Y-003810
X+003048Y-003810
X+003556Y-003810
X+004064Y-003810
X+003810Y-003810
X+004318Y-003810
X+004826Y-003810
X+004572Y-003810
X+005080Y-003810
X+005588Y-003810
X+005334Y-003810
X+005842Y-003810
X+006350Y-003810
X+006096Y-003810
X+006604Y-003810
X+007112Y-003810
X+006858Y-003810
X+007366Y-003810
X+007874Y-003810
X+007620Y-003810
X+008128Y-003810
X+008636Y-003810
X+008382Y-003810
X+008890Y-003810
X+009398Y-003810
X+009144Y-003810
X+009652Y-003810
X+010160Y-003810
X+009906Y-003810
X+010414Y-003810
X+010922Y-003810
X+010668Y-003810
X+011176Y-003810
X+011684Y-003810
X+011430Y-003810
X+011938Y-003810
X+012446Y-003810
X+012192Y-003810
X+012700Y-003810
X+012954Y-003810
X+001016Y-004064
X+000762Y-004064
X+001270Y-004064
X+001778Y-004064
X+001524Y-004064
X+002032Y-004064
X+002540Y-004064
X+002286Y-004064
X+002794Y-004064
X+003302Y-004064
X+003048Y-004064
X+003556Y-004064
X+004064Y-004064
X+003810Y-004064
X+004318Y-004064
X+004826Y-004064
X+004572Y-004064
X+005080Y-004064
X+005588Y-004064
X+005334Y-004064
X+005842Y-004064
X+006350Y-004064
X+006096Y-004064
X+006604Y-004064
X+007112Y-004064
X+006858Y-004064
X+007366Y-004064
X+007874Y-004064
X+007620Y-004064
X+008128Y-004064
X+008636Y-004064
X+008382Y-004064
X+008890Y-004064
X+009398Y-004064
X+009144Y-004064
X+009652Y-004064
X+010160Y-004064
X+009906Y-004064
X+010414Y-004064
X+010922Y-004064
X+010668Y-004064
X+011176Y-004064
X+011684Y-004064
X+011430Y-004064
X+011938Y-004064
X+012446Y-004064
X+012192Y-004064
X+012700Y-004064
X+012954Y-004064
X+001016Y-004318
X+000762Y-004318
X+001270Y-004318
X+001778Y-004318
X+001524Y-004318
X+002032Y-004318
X+002540Y-004318
X+002286Y-004318
X+002794Y-004318
X+003302Y-004318
X+003048Y-004318
X+003556Y-004318
X+004064Y-004318
X+003810Y-004318
X+004318Y-004318
X+004826Y-004318
X+004572Y-004318
X+005080Y-004318
X+005588Y-004318
X+005334Y-004318
X+005842Y-004318
X+006350Y-004318
X+006096Y-004318
X+006604Y-004318
X+007112Y-004318
X+006858Y-004318
X+007366Y-004318
X+007874Y-004318
X+007620Y-004318
X+008128Y-004318
X+008636Y-004318
X+008382Y-004318
X+008890Y-004318
X+009398Y-004318
X+009144Y-004318
X+009652Y-004318
X+010160Y-004318
X+009906Y-004318
X+010414Y-004318
X+010922Y-004318
X+010668Y-004318
X+011176Y-004318
X+011684Y-004318
X+011430Y-004318
X+011938Y-004318
X+012446Y-004318
X+012192Y-004318
X+012700Y-004318
X+012954Y-004318
X+001016Y-004572
X+000762Y-004572
X+001270Y-004572
X+001778Y-004572
X+001524Y-004572
X+002032Y-004572
X+002540Y-004572
X+002286Y-004572
X+002794Y-004572
X+003302Y-004572
X+003048Y-004572
X+003556Y-004572
X+004064Y-004572
X+003810Y-004572
X+004318Y-004572
X+004826Y-004572
X+004572Y-004572
X+005080Y-004572
X+005588Y-004572
X+005334Y-004572
X+005842Y-004572
X+006350Y-004572
X+006096Y-004572
X+006604Y-004572
X+007112Y-004572
X+006858Y-004572
X+007366Y-004572
X+007874Y-004572
X+007620Y-004572
X+008128Y-004572
X+008636Y-004572
X+008382Y-004572
X+008890Y-004572
X+009398Y-004572
X+009144Y-004572
X+009652Y-004572
X+010160Y-004572
X+009906Y-004572
X+010414Y-004572
X+010922Y-004572
X+010668Y-004572
X+011176Y-004572
X+011684Y-004572
X+011430Y-004572
X+011938Y-004572
X+012446Y-004572
X+012192Y-004572
X+012700Y-004572
X+012954Y-004572
X+001016Y-004826
X+000762Y-004826
X+001270Y-004826
X+001778Y-004826
X+001524Y-004826
X+002032Y-004826
X+002540Y-004826
X+002286Y-004826
X+002794Y-004826
X+003302Y-004826
X+003048Y-004826
X+003556Y-004826
X+004064Y-004826
X+003810Y-004826
X+004318Y-004826
X+004826Y-004826
X+004572Y-004826
X+005080Y-004826
X+005588Y-004826
X+005334Y-004826
X+005842Y-004826
X+006350Y-004826
X+006096Y-004826
X+006604Y-004826
X+007112Y-004826
X+006858Y-004826
X+007366Y-004826
X+007874Y-004826
X+007620Y-004826
X+008128Y-004826
X+008636Y-004826
X+008382Y-004826
X+008890Y-004826
X+009398Y-004826
X+009144Y-004826
X+009652Y-004826
X+010160Y-004826
X+009906Y-004826
X+010414Y-004826
X+010922Y-004826
X+010668Y-004826
X+011176Y-004826
X+011684Y-004826
X+011430Y-004826
X+011938Y-004826
X+012446Y-004826
X+012192Y-004826
X+012700Y-004826
X+012954Y-004826
X+001016Y-005080
X+000762Y-005080
X+001270Y-005080
X+001778Y-005080
X+001524Y-005080
X+002032Y-005080
X+002540Y-005080
X+002286Y-005080
X+002794Y-005080
X+003302Y-005080
X+003048Y-005080
X+003556Y-005080
X+004064Y-005080
X+003810Y-005080
X+004318Y-005080
X+004826Y-005080
X+004572Y-005080
X+005080Y-005080
X+005588Y-005080
X+005334Y-005080
X+005842Y-005080
X+006350Y-005080
X+006096Y-005080
X+006604Y-005080
X+007112Y-005080
X+006858Y-005080
X+007366Y-005080
X+007874Y-005080
X+007620Y-005080
X+008128Y-005080
X+008636Y-005080
X+008382Y-005080
X+008890Y-005080
X+009398Y-005080
X+009144Y-005080
X+009652Y-005080
X+010160Y-005080
X+009906Y-005080
X+010414Y-005080
X+010922Y-005080
X+010668Y-005080
X+011176Y-005080
X+011684Y-005080
X+011430Y-005080
X+011938Y-005080
X+012446Y-005080
X+012192Y-005080
X+012700Y-005080
X+012954Y-005080
X+008128Y-005334
X+008636Y-005334
X+008382Y-005334
X+008890Y-005334
X+009398Y-005334
X+009144Y-005334
X+009652Y-005334
X+010160Y-005334
X+009906Y-005334
X+010414Y-005334
X+010922Y-005334
X+010668Y-005334
X+011176Y-005334
X+011684Y-005334
X+011430Y-005334
X+011938Y-005334
X+012446Y-005334
X+012192Y-005334
X+012700Y-005334
X+012954Y-005334
X+008128Y-005588
X+008636Y-005588
X+008382Y-005588
X+008890Y-005588
X+009398Y-005588
X+009144Y-005588
X+009652Y-005588
X+010160Y-005588
X+009906Y-005588
X+010414Y-005588
X+010922Y-005588
X+010668Y-005588
X+011176Y-005588
X+011684Y-005588
X+011430Y-005588
X+011938Y-005588
X+012446Y-005588
X+012192Y-005588
X+012700Y-005588
X+012954Y-005588
X+008128Y-005842
X+008636Y-005842
X+008382Y-005842
X+008890Y-005842
X+009398Y-005842
X+009144Y-005842
X+009652Y-005842
X+010160Y-005842
X+009906Y-005842
X+010414Y-005842
X+010922Y-005842
X+010668Y-005842
X+011176Y-005842
X+011684Y-005842
X+011430Y-005842
X+011938Y-005842
X+012446Y-005842
X+012192Y-005842
X+012700Y-005842
X+012954Y-005842
X+008128Y-006096
X+008636Y-006096
X+008382Y-006096
X+008890Y-006096
X+009398Y-006096
X+009144Y-006096
X+009652Y-006096
X+010160Y-006096
X+009906Y-006096
X+010414Y-006096
X+010922Y-006096
X+010668Y-006096
X+011176Y-006096
X+011684Y-006096
X+011430Y-006096
X+011938Y-006096
X+012446Y-006096
X+012192Y-006096
X+012700Y-006096
X+012954Y-006096
X+008128Y-006350
X+008636Y-006350
X+008382Y-006350
X+008890Y-006350
X+009398Y-006350
X+009144Y-006350
X+009652Y-006350
X+010160Y-006350
X+009906Y-006350
X+010414Y-006350
X+010922Y-006350
X+010668Y-006350
X+011176Y-006350
X+011684Y-006350
X+011430Y-006350
X+011938Y-006350
X+012446Y-006350
X+012192Y-006350
X+012700Y-006350
X+012954Y-006350
X+008128Y-006604
X+008636Y-006604
X+008382Y-006604
X+008890Y-006604
X+009398Y-006604
X+009144Y-006604
X+009652Y-006604
X+010160Y-006604
X+009906Y-006604
X+010414Y-006604
X+010922Y-006604
X+010668Y-006604
X+011176Y-006604
X+011684Y-006604
X+011430Y-006604
X+011938Y-006604
X+012446Y-006604
X+012192Y-006604
X+012700Y-006604
X+012954Y-006604
X+008128Y-006858
X+008636Y-006858
X+008382Y-006858
X+008890Y-006858
X+009398Y-006858
X+009144Y-006858
X+009652Y-006858
X+010160Y-006858
X+009906Y-006858
X+010414Y-006858
X+010922Y-006858
X+010668Y-006858
X+011176Y-006858
X+011684Y-006858
X+011430Y-006858
X+011938Y-006858
X+012446Y-006858
X+012192Y-006858
X+012700Y-006858
X+012954Y-006858
X+008128Y-007112
X+008636Y-007112
X+008382Y-007112
X+008890Y-007112
X+009398Y-007112
X+009144Y-007112
X+009652Y-007112
X+010160Y-007112
X+009906Y-007112
X+010414Y-007112
X+010922Y-007112
X+010668Y-007112
X+011176Y-007112
X+011684Y-007112
X+011430Y-007112
X+011938Y-007112
X+012446Y-007112
X+012192Y-007112
X+012700Y-007112
X+012954Y-007112
X+008128Y-007366
X+008636Y-007366
X+008382Y-007366
X+008890Y-007366
X+009398Y-007366
X+009144Y-007366
X+009652Y-007366
X+010160Y-007366
X+009906Y-007366
X+010414Y-007366
X+010922Y-007366
X+010668Y-007366
X+011176Y-007366
X+011684Y-007366
X+011430Y-007366
X+011938Y-007366
X+012446Y-007366
X+012192Y-007366
X+012700Y-007366
X+012954Y-007366
X+008128Y-007620
X+008636Y-007620
X+008382Y-007620
X+008890Y-007620
X+009398Y-007620
X+009144Y-007620
X+009652Y-007620
X+010160Y-007620
X+009906Y-007620
X+010414Y-007620
X+010922Y-007620
X+010668Y-007620
X+011176Y-007620
X+011684Y-007620
X+011430Y-007620
X+011938Y-007620
X+012446Y-007620
X+012192Y-007620
X+012700Y-007620
X+012954Y-007620
X+008128Y-007874
X+008636Y-007874
X+008382Y-007874
X+008890Y-007874
X+009398Y-007874
X+009144Y-007874
X+009652Y-007874
X+010160Y-007874
X+009906Y-007874
X+010414Y-007874
X+010922Y-007874
X+010668Y-007874
X+011176Y-007874
X+011684Y-007874
X+011430Y-007874
X+011938Y-007874
X+012446Y-007874
X+012192Y-007874
X+012700Y-007874
X+012954Y-007874
X+008636Y-008128
X+008890Y-008128
X+009398Y-008128
X+009144Y-008128
X+009652Y-008128
X+010160Y-008128
X+009906Y-008128
X+010414Y-008128
X+010922Y-008128
X+010668Y-008128
X+011176Y-008128
X+011684Y-008128
X+011430Y-008128
X+011938Y-008128
X+012446Y-008128
X+012192Y-008128
X+012700Y-008128
X+012954Y-008128
X+008636Y-008382
X+008890Y-008382
X+009398Y-008382
X+009144Y-008382
X+009652Y-008382
X+010160Y-008382
X+009906Y-008382
X+010414Y-008382
X+010922Y-008382
X+010668Y-008382
X+011176Y-008382
X+011684Y-008382
X+011430Y-008382
X+011938Y-008382
X+012446Y-008382
X+012192Y-008382
X+012700Y-008382
X+012954Y-008382
X+007874Y-005334
X+007874Y-005588
X+007620Y-005334
X+007874Y-005842
X+007620Y-005588
X+007366Y-005334
X+007874Y-006096
X+007620Y-005842
X+007366Y-005588
X+007112Y-005334
T03
X+001016Y-011938
X+001016Y-010922
T02
X+004826Y-008636
X+005080Y-008636
X+005334Y-008636
X+005588Y-008636
X+005842Y-008636
X+006096Y-008636
X+006350Y-008636
X+006350Y-007874
X+006096Y-007874
X+005842Y-007874
X+005588Y-007874
X+005334Y-007874
X+005080Y-007874
X+004826Y-007874
X+001524Y-008636
X+001778Y-008636
X+002032Y-008636
X+002286Y-008636
X+002540Y-008636
X+002794Y-008636
X+003048Y-008636
X+003048Y-007874
X+002794Y-007874
X+002540Y-007874
X+002286Y-007874
X+002032Y-007874
X+001778Y-007874
X+001524Y-007874
X+001524Y-006604
X+001778Y-006604
X+002032Y-006604
X+002286Y-006604
X+002540Y-006604
X+002794Y-006604
X+003048Y-006604
X+003048Y-005842
X+002794Y-005842
X+002540Y-005842
X+002286Y-005842
X+002032Y-005842
X+001778Y-005842
X+001524Y-005842
X+004826Y-006604
X+005080Y-006604
X+005334Y-006604
X+005588Y-006604
X+005842Y-006604
X+006096Y-006604
X+006350Y-006604
X+006604Y-006604
X+006604Y-005842
X+006350Y-005842
X+006096Y-005842
X+005842Y-005842
X+005588Y-005842
X+005334Y-005842
X+005080Y-005842
X+004826Y-005842
X+001524Y-010668
X+001778Y-010668
X+002032Y-010668
X+002286Y-010668
X+002540Y-010668
X+002794Y-010668
X+003048Y-010668
X+003302Y-010668
X+003556Y-010668
X+003810Y-010668
X+001524Y-009906
X+001778Y-009906
X+002032Y-009906
X+002286Y-009906
X+002540Y-009906
X+002794Y-009906
X+003048Y-009906
X+003302Y-009906
X+003556Y-009906
X+003810Y-009906
X+004826Y-010668
X+005080Y-010668
X+005334Y-010668
X+005588Y-010668
X+005842Y-010668
X+006096Y-010668
X+006350Y-010668
X+006604Y-010668
X+006858Y-010668
X+007112Y-010668
X+004826Y-009906
X+005080Y-009906
X+005334Y-009906
X+005588Y-009906
X+005842Y-009906
X+006096Y-009906
X+006350Y-009906
X+006604Y-009906
X+006858Y-009906
X+007112Y-009906
X+009017Y-011049
X+009271Y-011049
X+009525Y-011049
X+009779Y-011049
X+010033Y-011049
X+010287Y-011049
X+010541Y-011049
X+010795Y-011049
X+011049Y-011049
X+011303Y-011049
X+011557Y-011049
X+011811Y-011049
X+012065Y-011049
X+012319Y-011049
X+012319Y-009529
X+012065Y-009529
X+011811Y-009529
X+011557Y-009529
X+011303Y-009529
X+011049Y-009529
X+010795Y-009529
X+010541Y-009529
X+010287Y-009529
X+010033Y-009529
X+009779Y-009529
X+009525Y-009529
X+009271Y-009529
X+009017Y-009529
T01
X+007592Y-012510
X+002156Y-008382
X+005588Y-006350
X+004966Y-012840
X+007845Y-010918
X+007845Y-010748
X+003048Y-010918
X+002286Y-010050
X+004448Y-010020
X+004448Y-010554
X+004698Y-010533
X+008729Y-011088
X+009679Y-012048
X+004698Y-011088
X+006321Y-011888
X+002879Y-010833
X+005334Y-010833
X+007507Y-012600
X+007429Y-012700
X+007675Y-012233
X+007592Y-012148
X+006367Y-007659
X+001231Y-012024
X+000921Y-012287
X+006490Y-012840
X+006490Y-012109
X+004119Y-012109
X+004119Y-009201
X+002032Y-009201
X+006067Y-012534
X+006067Y-012194
X+000603Y-012192
X+000872Y-012454
X+005076Y-012548
X+005474Y-012840
X+005220Y-012840
X+003302Y-011428
X+006694Y-011428
X+010046Y-011428
X+006604Y-011428
X+006604Y-008914
X+009792Y-012177
X+011980Y-012177
X+010118Y-009770
X+005668Y-009516
X+003048Y-009516
X+007247Y-009940
X+008644Y-009940
X+008264Y-008999
X+005458Y-009366
X+005768Y-009204
X+008099Y-009204
X+005334Y-009256
X+009655Y-009399
X+005643Y-012706
X+005076Y-012706
X+003178Y-008506
X+003481Y-008517
X+004985Y-008506
X+005972Y-008018
X+001524Y-006859
X+003556Y-011273
X+010541Y-011273
X+010287Y-011518
X+004025Y-011518
X+008882Y-009855
X+003940Y-011188
X+009779Y-011188
X+002879Y-009691
X+008099Y-009691
X+008099Y-010663
X+009525Y-010663
X+007845Y-010304
X+005080Y-010304
X+006496Y-011003
X+008349Y-011003
X+007337Y-010555
X+010795Y-010555
X+010287Y-010833
X+008734Y-009940
X+006096Y-009399
X+005853Y-009521
X+009271Y-009314
X+008814Y-010025
X+003112Y-011003
X+004826Y-011003
X+003945Y-009079
X+005210Y-009079
X+010541Y-012573
X+002477Y-007017
T00
M30
