G04 DipTrace 3.0.0.2*
G04 BasicROM.GTL*
%MOMM*%
G04 #@! TF.FileFunction,Copper,L1,Top*
G04 #@! TF.Part,Single*
G04 #@! TA.AperFunction,Conductor*
%ADD14C,1.0*%
%ADD15C,0.5*%
G04 #@! TA.AperFunction,ComponentPad*
%ADD16C,1.6*%
%ADD17R,1.6X1.6*%
%ADD18R,1.5X10.0*%
G04 #@! TA.AperFunction,ComponentPad*
%ADD19C,1.8*%
%ADD20C,1.524*%
%ADD21C,1.524*%
%ADD22R,1.5X1.5*%
%ADD23C,1.5*%
G04 #@! TA.AperFunction,ViaPad*
%ADD24C,0.6*%
%FSLAX35Y35*%
G04*
G71*
G90*
G75*
G01*
G04 Top*
%LPD*%
X4966000Y-13400000D2*
D14*
Y-12840000D1*
X4699000Y-12573000D1*
X762000D1*
X500000Y-12311000D1*
Y-10676000D1*
X762000Y-10414000D1*
X1016000D1*
X3556000D1*
X3596137Y-10454137D1*
X3810000Y-10668000D1*
X3596137Y-10454137D2*
Y-10414000D1*
X4318000D1*
X6858000D1*
X6888983Y-10444983D1*
X7112000Y-10668000D1*
X6888983Y-10444983D2*
X8478017D1*
X8509000Y-10414000D1*
X12065000D1*
X12319000Y-10668000D1*
Y-11049000D1*
X500000Y-10676000D2*
Y-8644000D1*
X762000Y-8382000D1*
X1016000D1*
X2794000D1*
X3048000Y-8636000D1*
X2794000Y-8382000D2*
X4318000D1*
X6096000D1*
X6350000Y-8636000D1*
X500000Y-8644000D2*
Y-6700000D1*
X850000Y-6350000D1*
X1016000D1*
X2921000D1*
X3048000Y-6477000D1*
Y-6604000D1*
X2921000Y-6350000D2*
X4318000D1*
X6477000D1*
X6604000Y-6477000D1*
Y-6604000D1*
X5842000Y-7874000D2*
D15*
X5588000D1*
X7592000Y-12509980D2*
X8953980D1*
X9284000Y-12840000D1*
Y-13400000D1*
X5588000Y-6350000D2*
X6477000D1*
X6604000Y-6604000D2*
D3*
X2156010Y-8382000D2*
X1016000D1*
X10300000Y-13400000D2*
D14*
Y-12814000D1*
X10541000Y-12573000D1*
X12527000D1*
X12900000Y-12200000D1*
Y-10500000D1*
X12560000Y-10160000D1*
X8945823D1*
X8509000D1*
X4715167D1*
X4318000D1*
X1444103D1*
X1016000D1*
X12900000Y-10500000D2*
Y-8963000D1*
X12573000Y-8636000D1*
X8509000D1*
X8001000Y-8128000D1*
X7747000D1*
X4724877D1*
X4318000D1*
X1382943D1*
X1016000D1*
X4318000Y-6096000D2*
X1422083D1*
X1016000D1*
X1524000Y-7874000D2*
Y-7986943D1*
X1382943Y-8128000D1*
X4826000Y-7874000D2*
Y-8026877D1*
X4724877Y-8128000D1*
X4826000Y-5842000D2*
Y-5979353D1*
X4709353Y-6096000D1*
X4318000D1*
X1524000Y-5842000D2*
Y-5994083D1*
X1422083Y-6096000D1*
X1524003Y-9906000D2*
Y-10080100D1*
X1444103Y-10160000D1*
X4826003Y-9906000D2*
Y-10049163D1*
X4715167Y-10160000D1*
X9017000Y-9529000D2*
Y-10088823D1*
X8945823Y-10160000D1*
X4709353Y-6096000D2*
X7196000D1*
X7747000Y-6647000D1*
Y-8128000D1*
X3048000Y-10917620D2*
D15*
X6100380D1*
X6350000Y-10668000D1*
X10046000Y-13400000D2*
Y-12377530D1*
X10126000Y-12297530D1*
X11985000D1*
X12065000Y-12217530D1*
Y-11049000D1*
X6350000Y-10668000D2*
X6599620Y-10917620D1*
X7845000D1*
X12065000Y-11049000D2*
X11763620Y-10747620D1*
X7845000D1*
X9792000Y-13400000D2*
Y-12398140D1*
X9679010Y-12285150D1*
Y-12047530D1*
X4448000Y-10020000D2*
X4106750D1*
X4076750Y-10050000D1*
X2286000D1*
X4698000Y-10533000D2*
X4616000D1*
Y-10553990D1*
X4448000D1*
X4698000Y-11087620D2*
X8729000D1*
X9679010Y-12047530D2*
X10558470D1*
X11176000Y-11430000D1*
X11430000D1*
X11811000Y-11049000D1*
X9538000Y-13400000D2*
Y-11967520D1*
X9617990Y-11887530D1*
X10591470D1*
X11176000Y-11303000D1*
X11430000D1*
X11557000Y-11176000D1*
Y-11049000D1*
X9538000Y-11967520D2*
X9458010Y-11887530D1*
X6321000D1*
X5334000Y-10832620D2*
X2879010D1*
X7507000Y-12599970D2*
X7934000D1*
X8014000Y-12679970D1*
Y-13400000D1*
X7429500Y-12700000D2*
X7625000D1*
X7760000Y-12835000D1*
Y-13400000D1*
X7675000Y-12232520D2*
X7332000Y-12575520D1*
Y-12845000D1*
X7506000D1*
Y-13400000D1*
X7592000Y-12147520D2*
X7252000Y-12487520D1*
Y-13400000D1*
X6367000Y-7659000D2*
X3009000D1*
X2794000Y-7874000D1*
X1231000Y-12024000D2*
X6563000D1*
X6998000Y-12459000D1*
Y-13400000D1*
X920750Y-12287250D2*
X6445250D1*
X6744000Y-12586000D1*
Y-13400000D1*
X6490000Y-12840000D2*
Y-13400000D1*
X4118520Y-12109000D2*
X6490000D1*
X2032000Y-9201000D2*
X4118520D1*
X6067000Y-12533990D2*
X6236000Y-12702990D1*
Y-13400000D1*
X603250Y-12192000D2*
X6067000D1*
Y-12194000D1*
X872000Y-12454000D2*
X5902000D1*
X5982000Y-12534000D1*
Y-13400000D1*
X5076000Y-12548000D2*
X5648000D1*
X5728000Y-12628000D1*
Y-13400000D1*
X5474000Y-12840000D2*
Y-13400000D1*
X5220000Y-12840000D2*
Y-13400000D1*
X6604000Y-11427620D2*
X3302000D1*
X10046000D2*
X6694000D1*
X12065000Y-9529000D2*
X12275000Y-9739000D1*
X12369000D1*
X12449000Y-9659000D1*
Y-8994000D1*
X12369000Y-8914000D1*
X6604000D1*
X6604003Y-9906000D2*
X6474003Y-9776000D1*
X3432003D1*
X3302003Y-9906000D1*
X11980000Y-12176650D2*
X9792000D1*
X10118000Y-9770000D2*
X11570000D1*
X11811000Y-9529000D1*
X3048000Y-9516000D2*
X5668000D1*
X8644000Y-9940000D2*
X7247000D1*
X11557000Y-9529000D2*
X11027000Y-8999000D1*
X8264000D1*
X5458010Y-9366000D2*
X2826000D1*
X2286000Y-9906000D1*
X8264000Y-8999000D2*
X5825010D1*
X5458010Y-9366000D1*
X5334010Y-9255990D2*
X5184020D1*
X5154010Y-9286000D1*
X2652003D1*
X2032003Y-9906000D1*
X5767860Y-9204000D2*
X8099000D1*
X10978000D1*
X11303000Y-9529000D1*
X9655000Y-9399000D2*
X10919000D1*
X11049000Y-9529000D1*
X2540000Y-5842000D2*
X2330000Y-5632000D1*
X1988000D1*
X1778000Y-5842000D1*
X5076000Y-12705980D2*
X5643000D1*
X2540000Y-7874000D2*
X2689000Y-8023000D1*
X3251650D1*
X3530650Y-7744000D1*
X5204000D1*
X5334000Y-7874000D1*
X3178000Y-8506000D2*
X3510980Y-8838980D1*
X5131020D1*
X5334000Y-8636000D1*
X2794000D2*
X3077000Y-8919000D1*
X5305000D1*
X5588000Y-8636000D1*
X4984540Y-8506000D2*
X4621500D1*
X4610500Y-8517000D1*
X3480800D1*
X1524000Y-6859050D2*
X1851447Y-7186497D1*
X6043497D1*
X6480000Y-7623000D1*
Y-7938000D1*
X6400000Y-8018000D1*
X5972000D1*
X4826000Y-6604000D2*
Y-6734000D1*
X4746000Y-6814000D1*
X2242000D1*
X2032000Y-6604000D1*
X11303000Y-11049000D2*
X10549470Y-11802530D1*
X3166530D1*
X2413000Y-11049000D1*
X2032000D1*
X1778000Y-10795000D1*
Y-10668000D1*
X11049000Y-11049000D2*
Y-11176000D1*
X10502470Y-11722530D1*
X3213530D1*
X2540003Y-11049003D1*
Y-10668000D1*
X2794003D2*
Y-11176003D1*
X3260530Y-11642530D1*
X10455470D1*
X10795000Y-11303000D1*
Y-11049000D1*
X10541000Y-11272590D2*
X3556010D1*
X4025000Y-11517610D2*
X10287000D1*
X8882010Y-9855000D2*
Y-9686000D1*
X8802010Y-9606000D1*
X2794003D1*
Y-9906000D1*
X9779000Y-11187590D2*
X3940000D1*
X8099000Y-9691000D2*
X2879010D1*
X9525000Y-10662620D2*
X8099000D1*
X5080000Y-10304000D2*
X7845000D1*
X8349000Y-11002620D2*
X6496000D1*
X10795000Y-10554990D2*
X7337000D1*
X10287000Y-10832620D2*
X7022623D1*
X6858003Y-10668000D1*
X8734000Y-9940000D2*
Y-9776000D1*
X6988003D1*
X6858003Y-9906000D1*
X6096000Y-9399000D2*
X9395000D1*
X9525000Y-9529000D1*
X9271000Y-9314000D2*
X6059860D1*
X5852860Y-9521000D1*
X8814000Y-10025000D2*
X7499300D1*
X7469300Y-10055000D1*
X5229003D1*
X5080003Y-9906000D1*
X2476500Y-7016750D2*
X5873750D1*
X6096000Y-6794500D1*
Y-6604000D1*
X1524000Y-10668000D2*
X1270000D1*
X1016000Y-10922000D1*
X4826000Y-11002620D2*
X3111640D1*
X5210000Y-9078990D2*
X3945010D1*
D24*
X10541000Y-12573000D3*
X2476500Y-7016750D3*
X7592000Y-12509980D3*
X2156010Y-8382000D3*
X5588000Y-6350000D3*
X4966000Y-12840000D3*
X7845000Y-10917620D3*
Y-10747620D3*
X3048000Y-10917620D3*
X2286000Y-10050000D3*
X4448000Y-10020000D3*
Y-10553990D3*
X4698000Y-10533000D3*
X8729000Y-11087620D3*
X9679010Y-12047530D3*
X4698000Y-11087620D3*
X6321000Y-11887530D3*
X2879010Y-10832620D3*
X5334000D3*
X7507000Y-12599970D3*
X7429500Y-12700000D3*
X7675000Y-12232520D3*
X7592000Y-12147520D3*
X6367000Y-7659000D3*
X1231000Y-12024000D3*
X920750Y-12287250D3*
X6490000Y-12840000D3*
Y-12109000D3*
X4118520D3*
Y-9201000D3*
X2032000D3*
X6067000Y-12533990D3*
Y-12194000D3*
X603250Y-12192000D3*
X872000Y-12454000D3*
X5076000Y-12548000D3*
X5474000Y-12840000D3*
X5220000D3*
X3302000Y-11427620D3*
X6694000D3*
X10046000D3*
X6604000D3*
Y-8914000D3*
X9792000Y-12176650D3*
X11980000D3*
X10118000Y-9770000D3*
X5668000Y-9516000D3*
X3048000D3*
X7247000Y-9940000D3*
X8644000D3*
X8264000Y-8999000D3*
X5458010Y-9366000D3*
X5767860Y-9204000D3*
X8099000D3*
X5334010Y-9255990D3*
X9655000Y-9399000D3*
X5643000Y-12705980D3*
X5076000D3*
X3178000Y-8506000D3*
X3480800Y-8517000D3*
X4984540Y-8506000D3*
X5972000Y-8018000D3*
X1524000Y-6859050D3*
X3556010Y-11272590D3*
X10541000D3*
X10287000Y-11517610D3*
X4025000D3*
X8882010Y-9855000D3*
X3940000Y-11187590D3*
X9779000D3*
X2879010Y-9691000D3*
X8099000D3*
Y-10662620D3*
X9525000D3*
X7845000Y-10304000D3*
X5080000D3*
X6496000Y-11002620D3*
X8349000D3*
X7337000Y-10554990D3*
X10795000D3*
X10287000Y-10832620D3*
X8734000Y-9940000D3*
X6096000Y-9399000D3*
X5852860Y-9521000D3*
X9271000Y-9314000D3*
X8814000Y-10025000D3*
X3111640Y-11002620D3*
X4826000D3*
X3945010Y-9078990D3*
X5210000D3*
D16*
X1016000Y-8382000D3*
D17*
Y-8128000D3*
D16*
X4318000Y-8382000D3*
D17*
Y-8128000D3*
D16*
X1016000Y-10414000D3*
D17*
Y-10160000D3*
D16*
X4318000Y-10414000D3*
D17*
Y-10160000D3*
D16*
Y-6350000D3*
D17*
Y-6096000D3*
D16*
X1016000Y-6350000D3*
D17*
Y-6096000D3*
D16*
X8509000Y-10414000D3*
D17*
Y-10160000D3*
D18*
X10300000Y-13400000D3*
X10046000D3*
X9792000D3*
X9538000D3*
X9284000D3*
X9030000D3*
X8776000D3*
X8522000D3*
X8268000D3*
X8014000D3*
X7760000D3*
X7506000D3*
X7252000D3*
X6998000D3*
X6744000D3*
X6490000D3*
X6236000D3*
X5982000D3*
X5728000D3*
X5474000D3*
X5220000D3*
X4966000D3*
D19*
X1016000Y-508000D3*
X762000D3*
X1270000D3*
X1778000D3*
X1524000D3*
X2032000D3*
X2540000D3*
X2286000D3*
X2794000D3*
X3302000D3*
X3048000D3*
X3556000D3*
X4064000D3*
X3810000D3*
X4318000D3*
X4826000D3*
X4572000D3*
X5080000D3*
X5588000D3*
X5334000D3*
X5842000D3*
X6350000D3*
X6096000D3*
X6604000D3*
X7112000D3*
X6858000D3*
X7366000D3*
X7874000D3*
X7620000D3*
X8128000D3*
X8636000D3*
X8382000D3*
X8890000D3*
X9398000D3*
X9144000D3*
X9652000D3*
X10160000D3*
X9906000D3*
X10414000D3*
X10922000D3*
X10668000D3*
X11176000D3*
X11684000D3*
X11430000D3*
X11938000D3*
X12446000D3*
X12192000D3*
X12700000D3*
X12954000D3*
X1016000Y-762000D3*
X762000D3*
X1270000D3*
X1778000D3*
X1524000D3*
X2032000D3*
X2540000D3*
X2286000D3*
X2794000D3*
X3302000D3*
X3048000D3*
X3556000D3*
X4064000D3*
X3810000D3*
X4318000D3*
X4826000D3*
X4572000D3*
X5080000D3*
X5588000D3*
X5334000D3*
X5842000D3*
X6350000D3*
X6096000D3*
X6604000D3*
X7112000D3*
X6858000D3*
X7366000D3*
X7874000D3*
X7620000D3*
X8128000D3*
X8636000D3*
X8382000D3*
X8890000D3*
X9398000D3*
X9144000D3*
X9652000D3*
X10160000D3*
X9906000D3*
X10414000D3*
X10922000D3*
X10668000D3*
X11176000D3*
X11684000D3*
X11430000D3*
X11938000D3*
X12446000D3*
X12192000D3*
X12700000D3*
X12954000D3*
X1016000Y-1016000D3*
X762000D3*
X1270000D3*
X1778000D3*
X1524000D3*
X2032000D3*
X2540000D3*
X2286000D3*
X2794000D3*
X3302000D3*
X3048000D3*
X3556000D3*
X4064000D3*
X3810000D3*
X4318000D3*
X4826000D3*
X4572000D3*
X5080000D3*
X5588000D3*
X5334000D3*
X5842000D3*
X6350000D3*
X6096000D3*
X6604000D3*
X7112000D3*
X6858000D3*
X7366000D3*
X7874000D3*
X7620000D3*
X8128000D3*
X8636000D3*
X8382000D3*
X8890000D3*
X9398000D3*
X9144000D3*
X9652000D3*
X10160000D3*
X9906000D3*
X10414000D3*
X10922000D3*
X10668000D3*
X11176000D3*
X11684000D3*
X11430000D3*
X11938000D3*
X12446000D3*
X12192000D3*
X12700000D3*
X12954000D3*
X1016000Y-1270000D3*
X762000D3*
X1270000D3*
X1778000D3*
X1524000D3*
X2032000D3*
X2540000D3*
X2286000D3*
X2794000D3*
X3302000D3*
X3048000D3*
X3556000D3*
X4064000D3*
X3810000D3*
X4318000D3*
X4826000D3*
X4572000D3*
X5080000D3*
X5588000D3*
X5334000D3*
X5842000D3*
X6350000D3*
X6096000D3*
X6604000D3*
X7112000D3*
X6858000D3*
X7366000D3*
X7874000D3*
X7620000D3*
X8128000D3*
X8636000D3*
X8382000D3*
X8890000D3*
X9398000D3*
X9144000D3*
X9652000D3*
X10160000D3*
X9906000D3*
X10414000D3*
X10922000D3*
X10668000D3*
X11176000D3*
X11684000D3*
X11430000D3*
X11938000D3*
X12446000D3*
X12192000D3*
X12700000D3*
X12954000D3*
X1016000Y-1524000D3*
X762000D3*
X1270000D3*
X1778000D3*
X1524000D3*
X2032000D3*
X2540000D3*
X2286000D3*
X2794000D3*
X3302000D3*
X3048000D3*
X3556000D3*
X4064000D3*
X3810000D3*
X4318000D3*
X4826000D3*
X4572000D3*
X5080000D3*
X5588000D3*
X5334000D3*
X5842000D3*
X6350000D3*
X6096000D3*
X6604000D3*
X7112000D3*
X6858000D3*
X7366000D3*
X7874000D3*
X7620000D3*
X8128000D3*
X8636000D3*
X8382000D3*
X8890000D3*
X9398000D3*
X9144000D3*
X9652000D3*
X10160000D3*
X9906000D3*
X10414000D3*
X10922000D3*
X10668000D3*
X11176000D3*
X11684000D3*
X11430000D3*
X11938000D3*
X12446000D3*
X12192000D3*
X12700000D3*
X12954000D3*
X1016000Y-1778000D3*
X762000D3*
X1270000D3*
X1778000D3*
X1524000D3*
X2032000D3*
X2540000D3*
X2286000D3*
X2794000D3*
X3302000D3*
X3048000D3*
X3556000D3*
X4064000D3*
X3810000D3*
X4318000D3*
X4826000D3*
X4572000D3*
X5080000D3*
X5588000D3*
X5334000D3*
X5842000D3*
X6350000D3*
X6096000D3*
X6604000D3*
X7112000D3*
X6858000D3*
X7366000D3*
X7874000D3*
X7620000D3*
X8128000D3*
X8636000D3*
X8382000D3*
X8890000D3*
X9398000D3*
X9144000D3*
X9652000D3*
X10160000D3*
X9906000D3*
X10414000D3*
X10922000D3*
X10668000D3*
X11176000D3*
X11684000D3*
X11430000D3*
X11938000D3*
X12446000D3*
X12192000D3*
X12700000D3*
X12954000D3*
X1016000Y-2032000D3*
X762000D3*
X1270000D3*
X1778000D3*
X1524000D3*
X2032000D3*
X2540000D3*
X2286000D3*
X2794000D3*
X3302000D3*
X3048000D3*
X3556000D3*
X4064000D3*
X3810000D3*
X4318000D3*
X4826000D3*
X4572000D3*
X5080000D3*
X5588000D3*
X5334000D3*
X5842000D3*
X6350000D3*
X6096000D3*
X6604000D3*
X7112000D3*
X6858000D3*
X7366000D3*
X7874000D3*
X7620000D3*
X8128000D3*
X8636000D3*
X8382000D3*
X8890000D3*
X9398000D3*
X9144000D3*
X9652000D3*
X10160000D3*
X9906000D3*
X10414000D3*
X10922000D3*
X10668000D3*
X11176000D3*
X11684000D3*
X11430000D3*
X11938000D3*
X12446000D3*
X12192000D3*
X12700000D3*
X12954000D3*
X1016000Y-2286000D3*
X762000D3*
X1270000D3*
X1778000D3*
X1524000D3*
X2032000D3*
X2540000D3*
X2286000D3*
X2794000D3*
X3302000D3*
X3048000D3*
X3556000D3*
X4064000D3*
X3810000D3*
X4318000D3*
X4826000D3*
X4572000D3*
X5080000D3*
X5588000D3*
X5334000D3*
X5842000D3*
X6350000D3*
X6096000D3*
X6604000D3*
X7112000D3*
X6858000D3*
X7366000D3*
X7874000D3*
X7620000D3*
X8128000D3*
X8636000D3*
X8382000D3*
X8890000D3*
X9398000D3*
X9144000D3*
X9652000D3*
X10160000D3*
X9906000D3*
X10414000D3*
X10922000D3*
X10668000D3*
X11176000D3*
X11684000D3*
X11430000D3*
X11938000D3*
X12446000D3*
X12192000D3*
X12700000D3*
X12954000D3*
X1016000Y-2540000D3*
X762000D3*
X1270000D3*
X1778000D3*
X1524000D3*
X2032000D3*
X2540000D3*
X2286000D3*
X2794000D3*
X3302000D3*
X3048000D3*
X3556000D3*
X4064000D3*
X3810000D3*
X4318000D3*
X4826000D3*
X4572000D3*
X5080000D3*
X5588000D3*
X5334000D3*
X5842000D3*
X6350000D3*
X6096000D3*
X6604000D3*
X7112000D3*
X6858000D3*
X7366000D3*
X7874000D3*
X7620000D3*
X8128000D3*
X8636000D3*
X8382000D3*
X8890000D3*
X9398000D3*
X9144000D3*
X9652000D3*
X10160000D3*
X9906000D3*
X10414000D3*
X10922000D3*
X10668000D3*
X11176000D3*
X11684000D3*
X11430000D3*
X11938000D3*
X12446000D3*
X12192000D3*
X12700000D3*
X12954000D3*
X1016000Y-2794000D3*
X762000D3*
X1270000D3*
X1778000D3*
X1524000D3*
X2032000D3*
X2540000D3*
X2286000D3*
X2794000D3*
X3302000D3*
X3048000D3*
X3556000D3*
X4064000D3*
X3810000D3*
X4318000D3*
X4826000D3*
X4572000D3*
X5080000D3*
X5588000D3*
X5334000D3*
X5842000D3*
X6350000D3*
X6096000D3*
X6604000D3*
X7112000D3*
X6858000D3*
X7366000D3*
X7874000D3*
X7620000D3*
X8128000D3*
X8636000D3*
X8382000D3*
X8890000D3*
X9398000D3*
X9144000D3*
X9652000D3*
X10160000D3*
X9906000D3*
X10414000D3*
X10922000D3*
X10668000D3*
X11176000D3*
X11684000D3*
X11430000D3*
X11938000D3*
X12446000D3*
X12192000D3*
X12700000D3*
X12954000D3*
X1016000Y-3048000D3*
X762000D3*
X1270000D3*
X1778000D3*
X1524000D3*
X2032000D3*
X2540000D3*
X2286000D3*
X2794000D3*
X3302000D3*
X3048000D3*
X3556000D3*
X4064000D3*
X3810000D3*
X4318000D3*
X4826000D3*
X4572000D3*
X5080000D3*
X5588000D3*
X5334000D3*
X5842000D3*
X6350000D3*
X6096000D3*
X6604000D3*
X7112000D3*
X6858000D3*
X7366000D3*
X7874000D3*
X7620000D3*
X8128000D3*
X8636000D3*
X8382000D3*
X8890000D3*
X9398000D3*
X9144000D3*
X9652000D3*
X10160000D3*
X9906000D3*
X10414000D3*
X10922000D3*
X10668000D3*
X11176000D3*
X11684000D3*
X11430000D3*
X11938000D3*
X12446000D3*
X12192000D3*
X12700000D3*
X12954000D3*
X1016000Y-3302000D3*
X762000D3*
X1270000D3*
X1778000D3*
X1524000D3*
X2032000D3*
X2540000D3*
X2286000D3*
X2794000D3*
X3302000D3*
X3048000D3*
X3556000D3*
X4064000D3*
X3810000D3*
X4318000D3*
X4826000D3*
X4572000D3*
X5080000D3*
X5588000D3*
X5334000D3*
X5842000D3*
X6350000D3*
X6096000D3*
X6604000D3*
X7112000D3*
X6858000D3*
X7366000D3*
X7874000D3*
X7620000D3*
X8128000D3*
X8636000D3*
X8382000D3*
X8890000D3*
X9398000D3*
X9144000D3*
X9652000D3*
X10160000D3*
X9906000D3*
X10414000D3*
X10922000D3*
X10668000D3*
X11176000D3*
X11684000D3*
X11430000D3*
X11938000D3*
X12446000D3*
X12192000D3*
X12700000D3*
X12954000D3*
X1016000Y-3556000D3*
X762000D3*
X1270000D3*
X1778000D3*
X1524000D3*
X2032000D3*
X2540000D3*
X2286000D3*
X2794000D3*
X3302000D3*
X3048000D3*
X3556000D3*
X4064000D3*
X3810000D3*
X4318000D3*
X4826000D3*
X4572000D3*
X5080000D3*
X5588000D3*
X5334000D3*
X5842000D3*
X6350000D3*
X6096000D3*
X6604000D3*
X7112000D3*
X6858000D3*
X7366000D3*
X7874000D3*
X7620000D3*
X8128000D3*
X8636000D3*
X8382000D3*
X8890000D3*
X9398000D3*
X9144000D3*
X9652000D3*
X10160000D3*
X9906000D3*
X10414000D3*
X10922000D3*
X10668000D3*
X11176000D3*
X11684000D3*
X11430000D3*
X11938000D3*
X12446000D3*
X12192000D3*
X12700000D3*
X12954000D3*
X1016000Y-3810000D3*
X762000D3*
X1270000D3*
X1778000D3*
X1524000D3*
X2032000D3*
X2540000D3*
X2286000D3*
X2794000D3*
X3302000D3*
X3048000D3*
X3556000D3*
X4064000D3*
X3810000D3*
X4318000D3*
X4826000D3*
X4572000D3*
X5080000D3*
X5588000D3*
X5334000D3*
X5842000D3*
X6350000D3*
X6096000D3*
X6604000D3*
X7112000D3*
X6858000D3*
X7366000D3*
X7874000D3*
X7620000D3*
X8128000D3*
X8636000D3*
X8382000D3*
X8890000D3*
X9398000D3*
X9144000D3*
X9652000D3*
X10160000D3*
X9906000D3*
X10414000D3*
X10922000D3*
X10668000D3*
X11176000D3*
X11684000D3*
X11430000D3*
X11938000D3*
X12446000D3*
X12192000D3*
X12700000D3*
X12954000D3*
X1016000Y-4064000D3*
X762000D3*
X1270000D3*
X1778000D3*
X1524000D3*
X2032000D3*
X2540000D3*
X2286000D3*
X2794000D3*
X3302000D3*
X3048000D3*
X3556000D3*
X4064000D3*
X3810000D3*
X4318000D3*
X4826000D3*
X4572000D3*
X5080000D3*
X5588000D3*
X5334000D3*
X5842000D3*
X6350000D3*
X6096000D3*
X6604000D3*
X7112000D3*
X6858000D3*
X7366000D3*
X7874000D3*
X7620000D3*
X8128000D3*
X8636000D3*
X8382000D3*
X8890000D3*
X9398000D3*
X9144000D3*
X9652000D3*
X10160000D3*
X9906000D3*
X10414000D3*
X10922000D3*
X10668000D3*
X11176000D3*
X11684000D3*
X11430000D3*
X11938000D3*
X12446000D3*
X12192000D3*
X12700000D3*
X12954000D3*
X1016000Y-4318000D3*
X762000D3*
X1270000D3*
X1778000D3*
X1524000D3*
X2032000D3*
X2540000D3*
X2286000D3*
X2794000D3*
X3302000D3*
X3048000D3*
X3556000D3*
X4064000D3*
X3810000D3*
X4318000D3*
X4826000D3*
X4572000D3*
X5080000D3*
X5588000D3*
X5334000D3*
X5842000D3*
X6350000D3*
X6096000D3*
X6604000D3*
X7112000D3*
X6858000D3*
X7366000D3*
X7874000D3*
X7620000D3*
X8128000D3*
X8636000D3*
X8382000D3*
X8890000D3*
X9398000D3*
X9144000D3*
X9652000D3*
X10160000D3*
X9906000D3*
X10414000D3*
X10922000D3*
X10668000D3*
X11176000D3*
X11684000D3*
X11430000D3*
X11938000D3*
X12446000D3*
X12192000D3*
X12700000D3*
X12954000D3*
X1016000Y-4572000D3*
X762000D3*
X1270000D3*
X1778000D3*
X1524000D3*
X2032000D3*
X2540000D3*
X2286000D3*
X2794000D3*
X3302000D3*
X3048000D3*
X3556000D3*
X4064000D3*
X3810000D3*
X4318000D3*
X4826000D3*
X4572000D3*
X5080000D3*
X5588000D3*
X5334000D3*
X5842000D3*
X6350000D3*
X6096000D3*
X6604000D3*
X7112000D3*
X6858000D3*
X7366000D3*
X7874000D3*
X7620000D3*
X8128000D3*
X8636000D3*
X8382000D3*
X8890000D3*
X9398000D3*
X9144000D3*
X9652000D3*
X10160000D3*
X9906000D3*
X10414000D3*
X10922000D3*
X10668000D3*
X11176000D3*
X11684000D3*
X11430000D3*
X11938000D3*
X12446000D3*
X12192000D3*
X12700000D3*
X12954000D3*
X1016000Y-4826000D3*
X762000D3*
X1270000D3*
X1778000D3*
X1524000D3*
X2032000D3*
X2540000D3*
X2286000D3*
X2794000D3*
X3302000D3*
X3048000D3*
X3556000D3*
X4064000D3*
X3810000D3*
X4318000D3*
X4826000D3*
X4572000D3*
X5080000D3*
X5588000D3*
X5334000D3*
X5842000D3*
X6350000D3*
X6096000D3*
X6604000D3*
X7112000D3*
X6858000D3*
X7366000D3*
X7874000D3*
X7620000D3*
X8128000D3*
X8636000D3*
X8382000D3*
X8890000D3*
X9398000D3*
X9144000D3*
X9652000D3*
X10160000D3*
X9906000D3*
X10414000D3*
X10922000D3*
X10668000D3*
X11176000D3*
X11684000D3*
X11430000D3*
X11938000D3*
X12446000D3*
X12192000D3*
X12700000D3*
X12954000D3*
X1016000Y-5080000D3*
X762000D3*
X1270000D3*
X1778000D3*
X1524000D3*
X2032000D3*
X2540000D3*
X2286000D3*
X2794000D3*
X3302000D3*
X3048000D3*
X3556000D3*
X4064000D3*
X3810000D3*
X4318000D3*
X4826000D3*
X4572000D3*
X5080000D3*
X5588000D3*
X5334000D3*
X5842000D3*
X6350000D3*
X6096000D3*
X6604000D3*
X7112000D3*
X6858000D3*
X7366000D3*
X7874000D3*
X7620000D3*
X8128000D3*
X8636000D3*
X8382000D3*
X8890000D3*
X9398000D3*
X9144000D3*
X9652000D3*
X10160000D3*
X9906000D3*
X10414000D3*
X10922000D3*
X10668000D3*
X11176000D3*
X11684000D3*
X11430000D3*
X11938000D3*
X12446000D3*
X12192000D3*
X12700000D3*
X12954000D3*
X8128000Y-5334000D3*
X8636000D3*
X8382000D3*
X8890000D3*
X9398000D3*
X9144000D3*
X9652000D3*
X10160000D3*
X9906000D3*
X10414000D3*
X10922000D3*
X10668000D3*
X11176000D3*
X11684000D3*
X11430000D3*
X11938000D3*
X12446000D3*
X12192000D3*
X12700000D3*
X12954000D3*
X8128000Y-5588000D3*
X8636000D3*
X8382000D3*
X8890000D3*
X9398000D3*
X9144000D3*
X9652000D3*
X10160000D3*
X9906000D3*
X10414000D3*
X10922000D3*
X10668000D3*
X11176000D3*
X11684000D3*
X11430000D3*
X11938000D3*
X12446000D3*
X12192000D3*
X12700000D3*
X12954000D3*
X8128000Y-5842000D3*
X8636000D3*
X8382000D3*
X8890000D3*
X9398000D3*
X9144000D3*
X9652000D3*
X10160000D3*
X9906000D3*
X10414000D3*
X10922000D3*
X10668000D3*
X11176000D3*
X11684000D3*
X11430000D3*
X11938000D3*
X12446000D3*
X12192000D3*
X12700000D3*
X12954000D3*
X8128000Y-6096000D3*
X8636000D3*
X8382000D3*
X8890000D3*
X9398000D3*
X9144000D3*
X9652000D3*
X10160000D3*
X9906000D3*
X10414000D3*
X10922000D3*
X10668000D3*
X11176000D3*
X11684000D3*
X11430000D3*
X11938000D3*
X12446000D3*
X12192000D3*
X12700000D3*
X12954000D3*
X8128000Y-6350000D3*
X8636000D3*
X8382000D3*
X8890000D3*
X9398000D3*
X9144000D3*
X9652000D3*
X10160000D3*
X9906000D3*
X10414000D3*
X10922000D3*
X10668000D3*
X11176000D3*
X11684000D3*
X11430000D3*
X11938000D3*
X12446000D3*
X12192000D3*
X12700000D3*
X12954000D3*
X8128000Y-6604000D3*
X8636000D3*
X8382000D3*
X8890000D3*
X9398000D3*
X9144000D3*
X9652000D3*
X10160000D3*
X9906000D3*
X10414000D3*
X10922000D3*
X10668000D3*
X11176000D3*
X11684000D3*
X11430000D3*
X11938000D3*
X12446000D3*
X12192000D3*
X12700000D3*
X12954000D3*
X8128000Y-6858000D3*
X8636000D3*
X8382000D3*
X8890000D3*
X9398000D3*
X9144000D3*
X9652000D3*
X10160000D3*
X9906000D3*
X10414000D3*
X10922000D3*
X10668000D3*
X11176000D3*
X11684000D3*
X11430000D3*
X11938000D3*
X12446000D3*
X12192000D3*
X12700000D3*
X12954000D3*
X8128000Y-7112000D3*
X8636000D3*
X8382000D3*
X8890000D3*
X9398000D3*
X9144000D3*
X9652000D3*
X10160000D3*
X9906000D3*
X10414000D3*
X10922000D3*
X10668000D3*
X11176000D3*
X11684000D3*
X11430000D3*
X11938000D3*
X12446000D3*
X12192000D3*
X12700000D3*
X12954000D3*
X8128000Y-7366000D3*
X8636000D3*
X8382000D3*
X8890000D3*
X9398000D3*
X9144000D3*
X9652000D3*
X10160000D3*
X9906000D3*
X10414000D3*
X10922000D3*
X10668000D3*
X11176000D3*
X11684000D3*
X11430000D3*
X11938000D3*
X12446000D3*
X12192000D3*
X12700000D3*
X12954000D3*
X8128000Y-7620000D3*
X8636000D3*
X8382000D3*
X8890000D3*
X9398000D3*
X9144000D3*
X9652000D3*
X10160000D3*
X9906000D3*
X10414000D3*
X10922000D3*
X10668000D3*
X11176000D3*
X11684000D3*
X11430000D3*
X11938000D3*
X12446000D3*
X12192000D3*
X12700000D3*
X12954000D3*
X8128000Y-7874000D3*
X8636000D3*
X8382000D3*
X8890000D3*
X9398000D3*
X9144000D3*
X9652000D3*
X10160000D3*
X9906000D3*
X10414000D3*
X10922000D3*
X10668000D3*
X11176000D3*
X11684000D3*
X11430000D3*
X11938000D3*
X12446000D3*
X12192000D3*
X12700000D3*
X12954000D3*
X8636000Y-8128000D3*
X8890000D3*
X9398000D3*
X9144000D3*
X9652000D3*
X10160000D3*
X9906000D3*
X10414000D3*
X10922000D3*
X10668000D3*
X11176000D3*
X11684000D3*
X11430000D3*
X11938000D3*
X12446000D3*
X12192000D3*
X12700000D3*
X12954000D3*
X8636000Y-8382000D3*
X8890000D3*
X9398000D3*
X9144000D3*
X9652000D3*
X10160000D3*
X9906000D3*
X10414000D3*
X10922000D3*
X10668000D3*
X11176000D3*
X11684000D3*
X11430000D3*
X11938000D3*
X12446000D3*
X12192000D3*
X12700000D3*
X12954000D3*
X7874000Y-5334000D3*
Y-5588000D3*
X7620000Y-5334000D3*
X7874000Y-5842000D3*
X7620000Y-5588000D3*
X7366000Y-5334000D3*
X7874000Y-6096000D3*
X7620000Y-5842000D3*
X7366000Y-5588000D3*
X7112000Y-5334000D3*
D20*
X1016000Y-11938000D3*
D21*
Y-10922000D3*
D22*
X4826000Y-8636000D3*
D23*
X5080000D3*
X5334000D3*
X5588000D3*
X5842000D3*
X6096000D3*
X6350000D3*
Y-7874000D3*
X6096000D3*
X5842000D3*
X5588000D3*
X5334000D3*
X5080000D3*
X4826000D3*
D22*
X1524000Y-8636000D3*
D23*
X1778000D3*
X2032000D3*
X2286000D3*
X2540000D3*
X2794000D3*
X3048000D3*
Y-7874000D3*
X2794000D3*
X2540000D3*
X2286000D3*
X2032000D3*
X1778000D3*
X1524000D3*
D22*
Y-6604000D3*
D23*
X1778000D3*
X2032000D3*
X2286000D3*
X2540000D3*
X2794000D3*
X3048000D3*
Y-5842000D3*
X2794000D3*
X2540000D3*
X2286000D3*
X2032000D3*
X1778000D3*
X1524000D3*
D22*
X4826000Y-6604000D3*
D23*
X5080000D3*
X5334000D3*
X5588000D3*
X5842000D3*
X6096000D3*
X6350000D3*
X6604000D3*
Y-5842000D3*
X6350000D3*
X6096000D3*
X5842000D3*
X5588000D3*
X5334000D3*
X5080000D3*
X4826000D3*
D22*
X1524000Y-10668000D3*
D23*
X1778000D3*
X2032000D3*
X2286000D3*
X2540003D3*
X2794003D3*
X3048000D3*
X3302003D3*
X3556003D3*
X3810000D3*
X1524003Y-9906000D3*
X1778003D3*
X2032003D3*
X2286000D3*
X2540003D3*
X2794003D3*
X3048000D3*
X3302003D3*
X3556003D3*
X3810000D3*
D22*
X4826000Y-10668000D3*
D23*
X5080000D3*
X5334000D3*
X5588000D3*
X5842003D3*
X6096003D3*
X6350000D3*
X6604003D3*
X6858003D3*
X7112000D3*
X4826003Y-9906000D3*
X5080003D3*
X5334003D3*
X5588000D3*
X5842003D3*
X6096003D3*
X6350000D3*
X6604003D3*
X6858003D3*
X7112000D3*
D22*
X9017000Y-11049000D3*
D23*
X9271000D3*
X9525000D3*
X9779000D3*
X10033000D3*
X10287000D3*
X10541000D3*
X10795000D3*
X11049000D3*
X11303000D3*
X11557000D3*
X11811000D3*
X12065000D3*
X12319000D3*
Y-9529000D3*
X12065000D3*
X11811000D3*
X11557000D3*
X11303000D3*
X11049000D3*
X10795000D3*
X10541000D3*
X10287000D3*
X10033000D3*
X9779000D3*
X9525000D3*
X9271000D3*
X9017000D3*
M02*
