G04 DipTrace 3.0.0.2*
G04 BasicROM.GBS*
%MOMM*%
G04 #@! TF.FileFunction,Soldermask,Bot*
G04 #@! TF.Part,Single*
%ADD17R,1.6X1.6*%
%ADD31C,1.6*%
%ADD34C,1.624*%
%ADD36C,1.624*%
%ADD38C,1.9*%
%ADD39C,1.7*%
%ADD40R,1.6X10.1*%
%ADD42R,1.7X1.7*%
%FSLAX35Y35*%
G04*
G71*
G90*
G75*
G01*
G04 BotMask*
%LPD*%
D39*
X1016000Y-8382000D3*
D42*
Y-8128000D3*
D39*
X4318000Y-8382000D3*
D42*
Y-8128000D3*
D39*
X1016000Y-10414000D3*
D42*
Y-10160000D3*
D39*
X4318000Y-10414000D3*
D42*
Y-10160000D3*
D39*
Y-6350000D3*
D42*
Y-6096000D3*
D39*
X1016000Y-6350000D3*
D42*
Y-6096000D3*
D39*
X8509000Y-10414000D3*
D42*
Y-10160000D3*
D40*
X10300000Y-13400000D3*
X10046000D3*
X9792000D3*
X9538000D3*
X9284000D3*
X9030000D3*
X8776000D3*
X8522000D3*
X8268000D3*
X8014000D3*
X7760000D3*
X7506000D3*
X7252000D3*
X6998000D3*
X6744000D3*
X6490000D3*
X6236000D3*
X5982000D3*
X5728000D3*
X5474000D3*
X5220000D3*
X4966000D3*
D38*
X1016000Y-508000D3*
X762000D3*
X1270000D3*
X1778000D3*
X1524000D3*
X2032000D3*
X2540000D3*
X2286000D3*
X2794000D3*
X3302000D3*
X3048000D3*
X3556000D3*
X4064000D3*
X3810000D3*
X4318000D3*
X4826000D3*
X4572000D3*
X5080000D3*
X5588000D3*
X5334000D3*
X5842000D3*
X6350000D3*
X6096000D3*
X6604000D3*
X7112000D3*
X6858000D3*
X7366000D3*
X7874000D3*
X7620000D3*
X8128000D3*
X8636000D3*
X8382000D3*
X8890000D3*
X9398000D3*
X9144000D3*
X9652000D3*
X10160000D3*
X9906000D3*
X10414000D3*
X10922000D3*
X10668000D3*
X11176000D3*
X11684000D3*
X11430000D3*
X11938000D3*
X12446000D3*
X12192000D3*
X12700000D3*
X12954000D3*
X1016000Y-762000D3*
X762000D3*
X1270000D3*
X1778000D3*
X1524000D3*
X2032000D3*
X2540000D3*
X2286000D3*
X2794000D3*
X3302000D3*
X3048000D3*
X3556000D3*
X4064000D3*
X3810000D3*
X4318000D3*
X4826000D3*
X4572000D3*
X5080000D3*
X5588000D3*
X5334000D3*
X5842000D3*
X6350000D3*
X6096000D3*
X6604000D3*
X7112000D3*
X6858000D3*
X7366000D3*
X7874000D3*
X7620000D3*
X8128000D3*
X8636000D3*
X8382000D3*
X8890000D3*
X9398000D3*
X9144000D3*
X9652000D3*
X10160000D3*
X9906000D3*
X10414000D3*
X10922000D3*
X10668000D3*
X11176000D3*
X11684000D3*
X11430000D3*
X11938000D3*
X12446000D3*
X12192000D3*
X12700000D3*
X12954000D3*
X1016000Y-1016000D3*
X762000D3*
X1270000D3*
X1778000D3*
X1524000D3*
X2032000D3*
X2540000D3*
X2286000D3*
X2794000D3*
X3302000D3*
X3048000D3*
X3556000D3*
X4064000D3*
X3810000D3*
X4318000D3*
X4826000D3*
X4572000D3*
X5080000D3*
X5588000D3*
X5334000D3*
X5842000D3*
X6350000D3*
X6096000D3*
X6604000D3*
X7112000D3*
X6858000D3*
X7366000D3*
X7874000D3*
X7620000D3*
X8128000D3*
X8636000D3*
X8382000D3*
X8890000D3*
X9398000D3*
X9144000D3*
X9652000D3*
X10160000D3*
X9906000D3*
X10414000D3*
X10922000D3*
X10668000D3*
X11176000D3*
X11684000D3*
X11430000D3*
X11938000D3*
X12446000D3*
X12192000D3*
X12700000D3*
X12954000D3*
X1016000Y-1270000D3*
X762000D3*
X1270000D3*
X1778000D3*
X1524000D3*
X2032000D3*
X2540000D3*
X2286000D3*
X2794000D3*
X3302000D3*
X3048000D3*
X3556000D3*
X4064000D3*
X3810000D3*
X4318000D3*
X4826000D3*
X4572000D3*
X5080000D3*
X5588000D3*
X5334000D3*
X5842000D3*
X6350000D3*
X6096000D3*
X6604000D3*
X7112000D3*
X6858000D3*
X7366000D3*
X7874000D3*
X7620000D3*
X8128000D3*
X8636000D3*
X8382000D3*
X8890000D3*
X9398000D3*
X9144000D3*
X9652000D3*
X10160000D3*
X9906000D3*
X10414000D3*
X10922000D3*
X10668000D3*
X11176000D3*
X11684000D3*
X11430000D3*
X11938000D3*
X12446000D3*
X12192000D3*
X12700000D3*
X12954000D3*
X1016000Y-1524000D3*
X762000D3*
X1270000D3*
X1778000D3*
X1524000D3*
X2032000D3*
X2540000D3*
X2286000D3*
X2794000D3*
X3302000D3*
X3048000D3*
X3556000D3*
X4064000D3*
X3810000D3*
X4318000D3*
X4826000D3*
X4572000D3*
X5080000D3*
X5588000D3*
X5334000D3*
X5842000D3*
X6350000D3*
X6096000D3*
X6604000D3*
X7112000D3*
X6858000D3*
X7366000D3*
X7874000D3*
X7620000D3*
X8128000D3*
X8636000D3*
X8382000D3*
X8890000D3*
X9398000D3*
X9144000D3*
X9652000D3*
X10160000D3*
X9906000D3*
X10414000D3*
X10922000D3*
X10668000D3*
X11176000D3*
X11684000D3*
X11430000D3*
X11938000D3*
X12446000D3*
X12192000D3*
X12700000D3*
X12954000D3*
X1016000Y-1778000D3*
X762000D3*
X1270000D3*
X1778000D3*
X1524000D3*
X2032000D3*
X2540000D3*
X2286000D3*
X2794000D3*
X3302000D3*
X3048000D3*
X3556000D3*
X4064000D3*
X3810000D3*
X4318000D3*
X4826000D3*
X4572000D3*
X5080000D3*
X5588000D3*
X5334000D3*
X5842000D3*
X6350000D3*
X6096000D3*
X6604000D3*
X7112000D3*
X6858000D3*
X7366000D3*
X7874000D3*
X7620000D3*
X8128000D3*
X8636000D3*
X8382000D3*
X8890000D3*
X9398000D3*
X9144000D3*
X9652000D3*
X10160000D3*
X9906000D3*
X10414000D3*
X10922000D3*
X10668000D3*
X11176000D3*
X11684000D3*
X11430000D3*
X11938000D3*
X12446000D3*
X12192000D3*
X12700000D3*
X12954000D3*
X1016000Y-2032000D3*
X762000D3*
X1270000D3*
X1778000D3*
X1524000D3*
X2032000D3*
X2540000D3*
X2286000D3*
X2794000D3*
X3302000D3*
X3048000D3*
X3556000D3*
X4064000D3*
X3810000D3*
X4318000D3*
X4826000D3*
X4572000D3*
X5080000D3*
X5588000D3*
X5334000D3*
X5842000D3*
X6350000D3*
X6096000D3*
X6604000D3*
X7112000D3*
X6858000D3*
X7366000D3*
X7874000D3*
X7620000D3*
X8128000D3*
X8636000D3*
X8382000D3*
X8890000D3*
X9398000D3*
X9144000D3*
X9652000D3*
X10160000D3*
X9906000D3*
X10414000D3*
X10922000D3*
X10668000D3*
X11176000D3*
X11684000D3*
X11430000D3*
X11938000D3*
X12446000D3*
X12192000D3*
X12700000D3*
X12954000D3*
X1016000Y-2286000D3*
X762000D3*
X1270000D3*
X1778000D3*
X1524000D3*
X2032000D3*
X2540000D3*
X2286000D3*
X2794000D3*
X3302000D3*
X3048000D3*
X3556000D3*
X4064000D3*
X3810000D3*
X4318000D3*
X4826000D3*
X4572000D3*
X5080000D3*
X5588000D3*
X5334000D3*
X5842000D3*
X6350000D3*
X6096000D3*
X6604000D3*
X7112000D3*
X6858000D3*
X7366000D3*
X7874000D3*
X7620000D3*
X8128000D3*
X8636000D3*
X8382000D3*
X8890000D3*
X9398000D3*
X9144000D3*
X9652000D3*
X10160000D3*
X9906000D3*
X10414000D3*
X10922000D3*
X10668000D3*
X11176000D3*
X11684000D3*
X11430000D3*
X11938000D3*
X12446000D3*
X12192000D3*
X12700000D3*
X12954000D3*
X1016000Y-2540000D3*
X762000D3*
X1270000D3*
X1778000D3*
X1524000D3*
X2032000D3*
X2540000D3*
X2286000D3*
X2794000D3*
X3302000D3*
X3048000D3*
X3556000D3*
X4064000D3*
X3810000D3*
X4318000D3*
X4826000D3*
X4572000D3*
X5080000D3*
X5588000D3*
X5334000D3*
X5842000D3*
X6350000D3*
X6096000D3*
X6604000D3*
X7112000D3*
X6858000D3*
X7366000D3*
X7874000D3*
X7620000D3*
X8128000D3*
X8636000D3*
X8382000D3*
X8890000D3*
X9398000D3*
X9144000D3*
X9652000D3*
X10160000D3*
X9906000D3*
X10414000D3*
X10922000D3*
X10668000D3*
X11176000D3*
X11684000D3*
X11430000D3*
X11938000D3*
X12446000D3*
X12192000D3*
X12700000D3*
X12954000D3*
X1016000Y-2794000D3*
X762000D3*
X1270000D3*
X1778000D3*
X1524000D3*
X2032000D3*
X2540000D3*
X2286000D3*
X2794000D3*
X3302000D3*
X3048000D3*
X3556000D3*
X4064000D3*
X3810000D3*
X4318000D3*
X4826000D3*
X4572000D3*
X5080000D3*
X5588000D3*
X5334000D3*
X5842000D3*
X6350000D3*
X6096000D3*
X6604000D3*
X7112000D3*
X6858000D3*
X7366000D3*
X7874000D3*
X7620000D3*
X8128000D3*
X8636000D3*
X8382000D3*
X8890000D3*
X9398000D3*
X9144000D3*
X9652000D3*
X10160000D3*
X9906000D3*
X10414000D3*
X10922000D3*
X10668000D3*
X11176000D3*
X11684000D3*
X11430000D3*
X11938000D3*
X12446000D3*
X12192000D3*
X12700000D3*
X12954000D3*
X1016000Y-3048000D3*
X762000D3*
X1270000D3*
X1778000D3*
X1524000D3*
X2032000D3*
X2540000D3*
X2286000D3*
X2794000D3*
X3302000D3*
X3048000D3*
X3556000D3*
X4064000D3*
X3810000D3*
X4318000D3*
X4826000D3*
X4572000D3*
X5080000D3*
X5588000D3*
X5334000D3*
X5842000D3*
X6350000D3*
X6096000D3*
X6604000D3*
X7112000D3*
X6858000D3*
X7366000D3*
X7874000D3*
X7620000D3*
X8128000D3*
X8636000D3*
X8382000D3*
X8890000D3*
X9398000D3*
X9144000D3*
X9652000D3*
X10160000D3*
X9906000D3*
X10414000D3*
X10922000D3*
X10668000D3*
X11176000D3*
X11684000D3*
X11430000D3*
X11938000D3*
X12446000D3*
X12192000D3*
X12700000D3*
X12954000D3*
X1016000Y-3302000D3*
X762000D3*
X1270000D3*
X1778000D3*
X1524000D3*
X2032000D3*
X2540000D3*
X2286000D3*
X2794000D3*
X3302000D3*
X3048000D3*
X3556000D3*
X4064000D3*
X3810000D3*
X4318000D3*
X4826000D3*
X4572000D3*
X5080000D3*
X5588000D3*
X5334000D3*
X5842000D3*
X6350000D3*
X6096000D3*
X6604000D3*
X7112000D3*
X6858000D3*
X7366000D3*
X7874000D3*
X7620000D3*
X8128000D3*
X8636000D3*
X8382000D3*
X8890000D3*
X9398000D3*
X9144000D3*
X9652000D3*
X10160000D3*
X9906000D3*
X10414000D3*
X10922000D3*
X10668000D3*
X11176000D3*
X11684000D3*
X11430000D3*
X11938000D3*
X12446000D3*
X12192000D3*
X12700000D3*
X12954000D3*
X1016000Y-3556000D3*
X762000D3*
X1270000D3*
X1778000D3*
X1524000D3*
X2032000D3*
X2540000D3*
X2286000D3*
X2794000D3*
X3302000D3*
X3048000D3*
X3556000D3*
X4064000D3*
X3810000D3*
X4318000D3*
X4826000D3*
X4572000D3*
X5080000D3*
X5588000D3*
X5334000D3*
X5842000D3*
X6350000D3*
X6096000D3*
X6604000D3*
X7112000D3*
X6858000D3*
X7366000D3*
X7874000D3*
X7620000D3*
X8128000D3*
X8636000D3*
X8382000D3*
X8890000D3*
X9398000D3*
X9144000D3*
X9652000D3*
X10160000D3*
X9906000D3*
X10414000D3*
X10922000D3*
X10668000D3*
X11176000D3*
X11684000D3*
X11430000D3*
X11938000D3*
X12446000D3*
X12192000D3*
X12700000D3*
X12954000D3*
X1016000Y-3810000D3*
X762000D3*
X1270000D3*
X1778000D3*
X1524000D3*
X2032000D3*
X2540000D3*
X2286000D3*
X2794000D3*
X3302000D3*
X3048000D3*
X3556000D3*
X4064000D3*
X3810000D3*
X4318000D3*
X4826000D3*
X4572000D3*
X5080000D3*
X5588000D3*
X5334000D3*
X5842000D3*
X6350000D3*
X6096000D3*
X6604000D3*
X7112000D3*
X6858000D3*
X7366000D3*
X7874000D3*
X7620000D3*
X8128000D3*
X8636000D3*
X8382000D3*
X8890000D3*
X9398000D3*
X9144000D3*
X9652000D3*
X10160000D3*
X9906000D3*
X10414000D3*
X10922000D3*
X10668000D3*
X11176000D3*
X11684000D3*
X11430000D3*
X11938000D3*
X12446000D3*
X12192000D3*
X12700000D3*
X12954000D3*
X1016000Y-4064000D3*
X762000D3*
X1270000D3*
X1778000D3*
X1524000D3*
X2032000D3*
X2540000D3*
X2286000D3*
X2794000D3*
X3302000D3*
X3048000D3*
X3556000D3*
X4064000D3*
X3810000D3*
X4318000D3*
X4826000D3*
X4572000D3*
X5080000D3*
X5588000D3*
X5334000D3*
X5842000D3*
X6350000D3*
X6096000D3*
X6604000D3*
X7112000D3*
X6858000D3*
X7366000D3*
X7874000D3*
X7620000D3*
X8128000D3*
X8636000D3*
X8382000D3*
X8890000D3*
X9398000D3*
X9144000D3*
X9652000D3*
X10160000D3*
X9906000D3*
X10414000D3*
X10922000D3*
X10668000D3*
X11176000D3*
X11684000D3*
X11430000D3*
X11938000D3*
X12446000D3*
X12192000D3*
X12700000D3*
X12954000D3*
X1016000Y-4318000D3*
X762000D3*
X1270000D3*
X1778000D3*
X1524000D3*
X2032000D3*
X2540000D3*
X2286000D3*
X2794000D3*
X3302000D3*
X3048000D3*
X3556000D3*
X4064000D3*
X3810000D3*
X4318000D3*
X4826000D3*
X4572000D3*
X5080000D3*
X5588000D3*
X5334000D3*
X5842000D3*
X6350000D3*
X6096000D3*
X6604000D3*
X7112000D3*
X6858000D3*
X7366000D3*
X7874000D3*
X7620000D3*
X8128000D3*
X8636000D3*
X8382000D3*
X8890000D3*
X9398000D3*
X9144000D3*
X9652000D3*
X10160000D3*
X9906000D3*
X10414000D3*
X10922000D3*
X10668000D3*
X11176000D3*
X11684000D3*
X11430000D3*
X11938000D3*
X12446000D3*
X12192000D3*
X12700000D3*
X12954000D3*
X1016000Y-4572000D3*
X762000D3*
X1270000D3*
X1778000D3*
X1524000D3*
X2032000D3*
X2540000D3*
X2286000D3*
X2794000D3*
X3302000D3*
X3048000D3*
X3556000D3*
X4064000D3*
X3810000D3*
X4318000D3*
X4826000D3*
X4572000D3*
X5080000D3*
X5588000D3*
X5334000D3*
X5842000D3*
X6350000D3*
X6096000D3*
X6604000D3*
X7112000D3*
X6858000D3*
X7366000D3*
X7874000D3*
X7620000D3*
X8128000D3*
X8636000D3*
X8382000D3*
X8890000D3*
X9398000D3*
X9144000D3*
X9652000D3*
X10160000D3*
X9906000D3*
X10414000D3*
X10922000D3*
X10668000D3*
X11176000D3*
X11684000D3*
X11430000D3*
X11938000D3*
X12446000D3*
X12192000D3*
X12700000D3*
X12954000D3*
X1016000Y-4826000D3*
X762000D3*
X1270000D3*
X1778000D3*
X1524000D3*
X2032000D3*
X2540000D3*
X2286000D3*
X2794000D3*
X3302000D3*
X3048000D3*
X3556000D3*
X4064000D3*
X3810000D3*
X4318000D3*
X4826000D3*
X4572000D3*
X5080000D3*
X5588000D3*
X5334000D3*
X5842000D3*
X6350000D3*
X6096000D3*
X6604000D3*
X7112000D3*
X6858000D3*
X7366000D3*
X7874000D3*
X7620000D3*
X8128000D3*
X8636000D3*
X8382000D3*
X8890000D3*
X9398000D3*
X9144000D3*
X9652000D3*
X10160000D3*
X9906000D3*
X10414000D3*
X10922000D3*
X10668000D3*
X11176000D3*
X11684000D3*
X11430000D3*
X11938000D3*
X12446000D3*
X12192000D3*
X12700000D3*
X12954000D3*
X1016000Y-5080000D3*
X762000D3*
X1270000D3*
X1778000D3*
X1524000D3*
X2032000D3*
X2540000D3*
X2286000D3*
X2794000D3*
X3302000D3*
X3048000D3*
X3556000D3*
X4064000D3*
X3810000D3*
X4318000D3*
X4826000D3*
X4572000D3*
X5080000D3*
X5588000D3*
X5334000D3*
X5842000D3*
X6350000D3*
X6096000D3*
X6604000D3*
X7112000D3*
X6858000D3*
X7366000D3*
X7874000D3*
X7620000D3*
X8128000D3*
X8636000D3*
X8382000D3*
X8890000D3*
X9398000D3*
X9144000D3*
X9652000D3*
X10160000D3*
X9906000D3*
X10414000D3*
X10922000D3*
X10668000D3*
X11176000D3*
X11684000D3*
X11430000D3*
X11938000D3*
X12446000D3*
X12192000D3*
X12700000D3*
X12954000D3*
X8128000Y-5334000D3*
X8636000D3*
X8382000D3*
X8890000D3*
X9398000D3*
X9144000D3*
X9652000D3*
X10160000D3*
X9906000D3*
X10414000D3*
X10922000D3*
X10668000D3*
X11176000D3*
X11684000D3*
X11430000D3*
X11938000D3*
X12446000D3*
X12192000D3*
X12700000D3*
X12954000D3*
X8128000Y-5588000D3*
X8636000D3*
X8382000D3*
X8890000D3*
X9398000D3*
X9144000D3*
X9652000D3*
X10160000D3*
X9906000D3*
X10414000D3*
X10922000D3*
X10668000D3*
X11176000D3*
X11684000D3*
X11430000D3*
X11938000D3*
X12446000D3*
X12192000D3*
X12700000D3*
X12954000D3*
X8128000Y-5842000D3*
X8636000D3*
X8382000D3*
X8890000D3*
X9398000D3*
X9144000D3*
X9652000D3*
X10160000D3*
X9906000D3*
X10414000D3*
X10922000D3*
X10668000D3*
X11176000D3*
X11684000D3*
X11430000D3*
X11938000D3*
X12446000D3*
X12192000D3*
X12700000D3*
X12954000D3*
X8128000Y-6096000D3*
X8636000D3*
X8382000D3*
X8890000D3*
X9398000D3*
X9144000D3*
X9652000D3*
X10160000D3*
X9906000D3*
X10414000D3*
X10922000D3*
X10668000D3*
X11176000D3*
X11684000D3*
X11430000D3*
X11938000D3*
X12446000D3*
X12192000D3*
X12700000D3*
X12954000D3*
X8128000Y-6350000D3*
X8636000D3*
X8382000D3*
X8890000D3*
X9398000D3*
X9144000D3*
X9652000D3*
X10160000D3*
X9906000D3*
X10414000D3*
X10922000D3*
X10668000D3*
X11176000D3*
X11684000D3*
X11430000D3*
X11938000D3*
X12446000D3*
X12192000D3*
X12700000D3*
X12954000D3*
X8128000Y-6604000D3*
X8636000D3*
X8382000D3*
X8890000D3*
X9398000D3*
X9144000D3*
X9652000D3*
X10160000D3*
X9906000D3*
X10414000D3*
X10922000D3*
X10668000D3*
X11176000D3*
X11684000D3*
X11430000D3*
X11938000D3*
X12446000D3*
X12192000D3*
X12700000D3*
X12954000D3*
X8128000Y-6858000D3*
X8636000D3*
X8382000D3*
X8890000D3*
X9398000D3*
X9144000D3*
X9652000D3*
X10160000D3*
X9906000D3*
X10414000D3*
X10922000D3*
X10668000D3*
X11176000D3*
X11684000D3*
X11430000D3*
X11938000D3*
X12446000D3*
X12192000D3*
X12700000D3*
X12954000D3*
X8128000Y-7112000D3*
X8636000D3*
X8382000D3*
X8890000D3*
X9398000D3*
X9144000D3*
X9652000D3*
X10160000D3*
X9906000D3*
X10414000D3*
X10922000D3*
X10668000D3*
X11176000D3*
X11684000D3*
X11430000D3*
X11938000D3*
X12446000D3*
X12192000D3*
X12700000D3*
X12954000D3*
X8128000Y-7366000D3*
X8636000D3*
X8382000D3*
X8890000D3*
X9398000D3*
X9144000D3*
X9652000D3*
X10160000D3*
X9906000D3*
X10414000D3*
X10922000D3*
X10668000D3*
X11176000D3*
X11684000D3*
X11430000D3*
X11938000D3*
X12446000D3*
X12192000D3*
X12700000D3*
X12954000D3*
X8128000Y-7620000D3*
X8636000D3*
X8382000D3*
X8890000D3*
X9398000D3*
X9144000D3*
X9652000D3*
X10160000D3*
X9906000D3*
X10414000D3*
X10922000D3*
X10668000D3*
X11176000D3*
X11684000D3*
X11430000D3*
X11938000D3*
X12446000D3*
X12192000D3*
X12700000D3*
X12954000D3*
X8128000Y-7874000D3*
X8636000D3*
X8382000D3*
X8890000D3*
X9398000D3*
X9144000D3*
X9652000D3*
X10160000D3*
X9906000D3*
X10414000D3*
X10922000D3*
X10668000D3*
X11176000D3*
X11684000D3*
X11430000D3*
X11938000D3*
X12446000D3*
X12192000D3*
X12700000D3*
X12954000D3*
X8636000Y-8128000D3*
X8890000D3*
X9398000D3*
X9144000D3*
X9652000D3*
X10160000D3*
X9906000D3*
X10414000D3*
X10922000D3*
X10668000D3*
X11176000D3*
X11684000D3*
X11430000D3*
X11938000D3*
X12446000D3*
X12192000D3*
X12700000D3*
X12954000D3*
X8636000Y-8382000D3*
X8890000D3*
X9398000D3*
X9144000D3*
X9652000D3*
X10160000D3*
X9906000D3*
X10414000D3*
X10922000D3*
X10668000D3*
X11176000D3*
X11684000D3*
X11430000D3*
X11938000D3*
X12446000D3*
X12192000D3*
X12700000D3*
X12954000D3*
X7874000Y-5334000D3*
Y-5588000D3*
X7620000Y-5334000D3*
X7874000Y-5842000D3*
X7620000Y-5588000D3*
X7366000Y-5334000D3*
X7874000Y-6096000D3*
X7620000Y-5842000D3*
X7366000Y-5588000D3*
X7112000Y-5334000D3*
D36*
X1016000Y-11938000D3*
D34*
Y-10922000D3*
D17*
X4826000Y-8636000D3*
D31*
X5080000D3*
X5334000D3*
X5588000D3*
X5842000D3*
X6096000D3*
X6350000D3*
Y-7874000D3*
X6096000D3*
X5842000D3*
X5588000D3*
X5334000D3*
X5080000D3*
X4826000D3*
D17*
X1524000Y-8636000D3*
D31*
X1778000D3*
X2032000D3*
X2286000D3*
X2540000D3*
X2794000D3*
X3048000D3*
Y-7874000D3*
X2794000D3*
X2540000D3*
X2286000D3*
X2032000D3*
X1778000D3*
X1524000D3*
D17*
Y-6604000D3*
D31*
X1778000D3*
X2032000D3*
X2286000D3*
X2540000D3*
X2794000D3*
X3048000D3*
Y-5842000D3*
X2794000D3*
X2540000D3*
X2286000D3*
X2032000D3*
X1778000D3*
X1524000D3*
D17*
X4826000Y-6604000D3*
D31*
X5080000D3*
X5334000D3*
X5588000D3*
X5842000D3*
X6096000D3*
X6350000D3*
X6604000D3*
Y-5842000D3*
X6350000D3*
X6096000D3*
X5842000D3*
X5588000D3*
X5334000D3*
X5080000D3*
X4826000D3*
D17*
X1524000Y-10668000D3*
D31*
X1778000D3*
X2032000D3*
X2286000D3*
X2540003D3*
X2794003D3*
X3048000D3*
X3302003D3*
X3556003D3*
X3810000D3*
X1524003Y-9906000D3*
X1778003D3*
X2032003D3*
X2286000D3*
X2540003D3*
X2794003D3*
X3048000D3*
X3302003D3*
X3556003D3*
X3810000D3*
D17*
X4826000Y-10668000D3*
D31*
X5080000D3*
X5334000D3*
X5588000D3*
X5842003D3*
X6096003D3*
X6350000D3*
X6604003D3*
X6858003D3*
X7112000D3*
X4826003Y-9906000D3*
X5080003D3*
X5334003D3*
X5588000D3*
X5842003D3*
X6096003D3*
X6350000D3*
X6604003D3*
X6858003D3*
X7112000D3*
D17*
X9017000Y-11049000D3*
D31*
X9271000D3*
X9525000D3*
X9779000D3*
X10033000D3*
X10287000D3*
X10541000D3*
X10795000D3*
X11049000D3*
X11303000D3*
X11557000D3*
X11811000D3*
X12065000D3*
X12319000D3*
Y-9529000D3*
X12065000D3*
X11811000D3*
X11557000D3*
X11303000D3*
X11049000D3*
X10795000D3*
X10541000D3*
X10287000D3*
X10033000D3*
X9779000D3*
X9525000D3*
X9271000D3*
X9017000D3*
G36*
X4600000Y-12900000D2*
X10600000D1*
Y-14100000D1*
X4600000D1*
Y-12900000D1*
G37*
M02*
