G04 DipTrace 3.0.0.2*
G04 BasicROM.GBO*
%MOMM*%
G04 #@! TF.FileFunction,Legend,Bot*
G04 #@! TF.Part,Single*
%ADD47C,0.23529*%
%FSLAX35Y35*%
G04*
G71*
G90*
G75*
G01*
G04 BotSilk*
%LPD*%
X10477860Y-12551690D2*
D47*
Y-12704822D1*
X10412160D1*
X10390260Y-12697409D1*
X10383016Y-12690165D1*
X10375772Y-12675678D1*
Y-12653778D1*
X10383016Y-12639122D1*
X10390260Y-12631878D1*
X10412160Y-12624634D1*
X10390260Y-12617222D1*
X10383016Y-12609978D1*
X10375772Y-12595490D1*
Y-12580834D1*
X10383016Y-12566346D1*
X10390260Y-12558934D1*
X10412160Y-12551690D1*
X10477860D1*
Y-12624634D2*
X10412160D1*
X10328713Y-12581002D2*
X10314057Y-12573590D1*
X10292157Y-12551859D1*
Y-12704822D1*
X5092539Y-12551690D2*
Y-12704822D1*
X5026839D1*
X5004939Y-12697409D1*
X4997695Y-12690165D1*
X4990451Y-12675678D1*
Y-12653778D1*
X4997695Y-12639122D1*
X5004939Y-12631878D1*
X5026839Y-12624634D1*
X5004939Y-12617222D1*
X4997695Y-12609978D1*
X4990451Y-12595490D1*
Y-12580834D1*
X4997695Y-12566346D1*
X5004939Y-12558934D1*
X5026839Y-12551690D1*
X5092539D1*
Y-12624634D2*
X5026839D1*
X4935980Y-12588246D2*
Y-12581002D1*
X4928736Y-12566346D1*
X4921492Y-12559102D1*
X4906836Y-12551859D1*
X4877692D1*
X4863205Y-12559102D1*
X4855961Y-12566346D1*
X4848548Y-12581002D1*
Y-12595490D1*
X4855961Y-12610146D1*
X4870448Y-12631878D1*
X4943392Y-12704822D1*
X4841305D1*
X4786833Y-12588246D2*
Y-12581002D1*
X4779590Y-12566346D1*
X4772346Y-12559102D1*
X4757690Y-12551859D1*
X4728546D1*
X4714058Y-12559102D1*
X4706814Y-12566346D1*
X4699402Y-12581002D1*
Y-12595490D1*
X4706814Y-12610146D1*
X4721302Y-12631878D1*
X4794246Y-12704822D1*
X4692158D1*
M02*
